<?xml version="1.0" encoding="UTF-8"?>
<svg width="4000px" height="355px" viewBox="0 0 4000 355" xmlns="http://www.w3.org/2000/svg" xmlns:xlink="http://www.w3.org/1999/xlink" version="1.1">
 <!-- Generated by Pixelmator Pro 1.4.1 -->
 <g id="z">
  <path id="path" d="M3610 10 L3690 10 3690 20 3700 20 3700 60 3690 60 3690 70 3700 70 3700 100 3620 100 3620 90 3610 90 3610 10 Z" fill="#000000" fill-opacity="1" stroke="none"/>
  <path id="path-1" d="M3619.999 20 L3679.997 20 3679.997 40 3669.997 40 3669.997 50 3659.997 50 3659.997 60 3649.997 60 3649.998 60 3649.997 70 3679.997 70 3679.997 80 3619.999 80 3619.999 60 C3619.999 60 3629.999 60 3629.999 60 3629.999 60 3630 50 3630 50 L3639.998 50 3639.999 40 3649.999 40 3649.999 30 3619.999 30 3619.999 20 Z" fill="#00a2ff" fill-opacity="1" stroke="none"/>
 </g>
 <g id="y">
  <path id="path-2" d="M3510 10 L3590 10 3590 20 3600 20 3600 70 3590 70 3590 80 3580 80 3580 90 3570 90 3570 100 3540 100 3540 90 3530 90 3530 70 3520 70 3520 60 3510 60 3510 10 Z" fill="#000000" fill-opacity="1" stroke="none"/>
  <path id="path-3" d="M3520 20 L3520 50 3530 50 3530 60 3540 60 3540 80 3560 80 3560 60 3570 60 3570 50 3580 50 3580 20 3560 20 3560 50 3540 50 3540 20 3520 20 Z" fill="#00a2ff" fill-opacity="1" stroke="none"/>
 </g>
 <g id="x">
  <path id="path-4" d="M3409 10 L3489.997 10.003 C3489.997 10.003 3489.998 20.002 3489.998 20.002 3489.998 20.002 3499.998 20.002 3499.998 20.002 L3499.998 100 3419.999 100 3419.999 90.001 C3419.999 90.001 3409 90 3409 90 3409 90 3409 10 3409 10 Z" fill="#000000" fill-opacity="1" stroke="none"/>
  <path id="path-5" d="M3420 80 L3420 60 3430 60 3430 50 3420 50 3420 20 3440 20 3440 50 C3440 50 3460 50 3460 50 3460 50 3460 20 3460 20 L3480 20 3480 50 3470 50 3470 60 3480 60 3480 80 3460 80 3460 60 3440 60 3440 80 3420 80 Z" fill="#00a2ff" fill-opacity="1" stroke="none"/>
 </g>
 <g id="w">
  <path id="path-6" d="M3390 10 C3390 10 3390 20 3390 20 L3400 20 3400 90 3390 90 3389.689 100 3320 100 3320 90 3310 90 3310 10 3340.852 10 3340 20 3360 20 3360 10 3390 10 Z" fill="#000000" fill-opacity="1" stroke="none"/>
  <path id="path-7" d="M3380 30.016 C3380 30.016 3380 70.017 3380 70.017 3380 70.017 3370 70.017 3370 70.017 3370 70.017 3370 80 3370 80 3370 80 3360 80 3360 80 3360 80 3360 70.001 3360 70.001 3360 70.001 3340 70.003 3340 70.003 3340 70.003 3340 80 3340 80 3340 80 3330 80 3330 80 L3330 70.013 3320 70.012 3320 20.008 3330 20.008 3330 70.007 3340 70.002 3340 30 3360 30 3360 70.001 3370 70.007 3370 20.007 C3370 20.007 3380 20.016 3380 20.016 L3380 30.016 Z" fill="#00a2ff" fill-opacity="1" stroke="none"/>
 </g>
 <g id="v">
  <path id="path-8" d="M3290 10 C3290 10 3290 20 3290 20 L3300 20 3300 80 3290 80 3290 90 3280 90 3280 100 3240 100 3240 90 3230 90 3230 80 3220 80 3220 70 3210 70 3210 10 Z" fill="#000000" fill-opacity="1" stroke="none"/>
  <path id="path-9" d="M3270 70.004 C3270 70.004 3260 70.006 3260 70.006 3260 70.006 3260 80 3260 80 3260 80 3240 80 3240 80 L3240 70.005 3230 70.002 3230 60.001 3220 60.001 3220 20.003 3240 20.004 3240 60.006 3260 60.006 3260 20.004 3280 20.014 3280 60 3270 60.001 3270 70.004 Z" fill="#00a2ff" fill-opacity="1" stroke="none"/>
 </g>
 <g id="u">
  <path id="path-10" d="M3190 10 C3190 10 3190 20 3190 20 L3200 20 3200 90 3190 90 3190 100 3120 100 3120 90 3110 90 3110 10 Z" fill="#000000" fill-opacity="1" stroke="none"/>
  <path id="path-11" d="M3180 70.001 C3180 70.001 3170 70.002 3170 70.002 3170 70.002 3170 80 3170 80 3170 80 3130 80 3130 80 L3130 70.003 3120 70.003 3120 20.003 3140 20.002 3140 70.002 3160 70 3160 20 C3160 20 3180 20.001 3180 20.001 Z" fill="#00a2ff" fill-opacity="1" stroke="none"/>
 </g>
 <g id="t">
  <path id="path-12" d="M3010 10 L3090 10 3090 20 3100 20 3100 50 3080 50 3080 100 3040 100 3040 90 3030 90 3030 40 3010 40 3010 10 Z" fill="#000000" fill-opacity="1" stroke="none"/>
  <path id="path-13" d="M3020 20 L3080 20 3080 30 3060 30 3060 80 3040 80 3040 30 3020 30 3020 20 Z" fill="#00a2ff" fill-opacity="1" stroke="none"/>
 </g>
 <g id="s">
  <path id="path-14" d="M2910 20 L2920 20 2920 10 2980 10 2980 20 2990 20 2990 50 3000 50 3000 90 2990 90 2990 100 2930 100 2930 90 2920 90 2920 60 2910 60 Z" fill="#000000" fill-opacity="1" stroke="none"/>
  <path id="path-15" d="M2920 30 L2930 30 2930 20 2970 20 2970 30 2940 30 2940 40 2970 40 2970 50 2980 50 2980 70 2970 70 2970 80 2930 80 2930 70 2960 70 2960 60 2930 60 2930 50 2920 50 2920 30 Z" fill="#00a2ff" fill-opacity="1" stroke="none"/>
 </g>
 <g id="r">
  <path id="path-16" d="M2810 10 L2880 10 2880 20 2890 20 2890 30 2900 30 2900 100 2820 100 2820 90 2810 90 2810 10 Z" fill="#000000" fill-opacity="1" stroke="none"/>
  <path id="path-17" d="M2820 80 L2820 20 2870 20 2870 30 2880 30 2880 50 2870 50 2870 60 2880 60 2880 80 2860 80 2860 60 2840 60 2840 80 2820 80 Z M2840 50 L2860 50 2860 30 2840 30 2840 50 Z" fill="#00a2ff" fill-opacity="1" stroke="none"/>
 </g>
 <g id="q">
  <path id="path-18" d="M2710 20 L2720 20 2720 10 2780 10 2780 20 2790 20 C2790 20 2790 30 2790 30 2790 30 2800 30 2800 30 L2800 90 2790 90 2790 100 2730 100 2730 90 2720 90 2720 80 2710 80 2710 20 Z" fill="#000000" fill-opacity="1" stroke="none"/>
  <path id="path-19" d="M2720 70.009 L2720 30.009 2730 30.009 2730 20.009 C2730 20.009 2770 20.009 2770 20.009 2770 20.009 2770 30.009 2770 30.009 L2780 30.009 2780 60 2770 60 2770 50.001 2760 50.001 2760 30.009 2740 30.009 2740 70.009 2760 70.009 2760 60.007 2750 60.007 2750 50.008 2760 50.004 2760 60.004 2770 60.005 2770 70.005 2780 70.006 2780 80 2770 80 2770 70.003 2760 70.006 2760 80 2730 80 2730 70.009 2720 70.009 Z" fill="#00a2ff" fill-opacity="1" stroke="none"/>
 </g>
 <g id="p">
  <path id="path-20" d="M2610 10.003 L2680 10.003 2680 20.003 2690 20.003 2690 30.003 2700 30.003 2700 70.002 2690 70.002 2690 80.002 2660 80.003 2660 100 C2660 100 2620 100 2620 100 2620 100 2620 90.001 2620 90.001 L2610 90 Z" fill="#000000" fill-opacity="1" stroke="none"/>
  <path id="path-21" d="M2620 80 L2620 20 2670 20 2670 30 2680 30 2680 50 2670 50 2670 60 2640 60 2640 80 2620 80 Z M2640 50 L2660 50 2660 30 2640 30 2640 50 Z" fill="#00a2ff" fill-opacity="1" stroke="none"/>
 </g>
 <g id="o">
  <path id="path-22" d="M2510 20 L2520 20 2520 10 2580 10 2580 20 2590 20 C2590 20 2590 30 2590 30 2590 30 2600 30 2600 30 L2600 90 2590 90 2590 100 2530 100 2530 90 2520 90 2520 80 2510 80 2510 20 Z" fill="#000000" fill-opacity="1" stroke="none"/>
  <path id="path-23" d="M2530 80 L2530 70 2520 70 2520 30 2530 30 2530 20 2570 20 2570 30 2580 30 2580 70 2570 70 2570 80 2530 80 Z M2540 70 L2560 70 2560 30 2540 30 2540 70 Z" fill="#00a2ff" fill-opacity="1" stroke="none"/>
 </g>
 <g id="n">
  <path id="path-24" d="M2410 10 L2410 90 2420 90 2420 100 2450 100 2450 90 2460 90 2460 100 2500 100 2500 20 2490 20 2490 10 2460 10 2460 20 2450 20 2450 10 2410 10 Z" fill="#000000" fill-opacity="1" stroke="none"/>
  <path id="path-25" d="M2420 80 L2420 20 2440 20 2440 30 2450 30 2450 40 2460 40 2460 50 2470 50 2470 30 2470 20 2480 20 2480 80 2460 80 2460 70 2450 70 2450 60 2440 60 2440 50 2430 50 2430 80 2420 80 Z" fill="#00a2ff" fill-opacity="1" stroke="none"/>
 </g>
 <g id="m">
  <path id="path-26" d="M2310 10 L2390 10 2390 20 2400 20 2400 100 2370 100 2370 90 2360 90 2360 80 2350 80 2350 100 2320 100 2320 90 2310 90 2310 10 Z" fill="#000000" fill-opacity="1" stroke="none"/>
  <path id="path-27" d="M2320 80 L2320 20 2340 20 2340 40 2360 40 2360 20 2380 20 2380 80 2370 80 2370 50 2360 50 2360 60 2340 60 2340 50 2330 50 2330 80 2320 80 Z" fill="#00a2ff" fill-opacity="1" stroke="none"/>
 </g>
 <g id="l">
  <path id="path-28" d="M2210 10 L2250 10 2250 50 2290 50 2290 60 2300 60 2300 100 2220 100 2220 90 2210 90 2210 10 Z" fill="#000000" fill-opacity="1" stroke="none"/>
  <path id="path-29" d="M2280 80 C2280 80 2220 80 2220 80 L2220 20 2240 20 2240 70 2260 70 2260 60 2280 60 Z" fill="#00a2ff" fill-opacity="1" stroke="none"/>
 </g>
 <g id="k">
  <path id="path-30" d="M1810 10 L1890 10 C1890 10 1890 20 1890 20 L1900 20 1900 100 1820 100 1820 90 1810 90 Z" fill="#000000" fill-opacity="1" stroke="none"/>
  <path id="path-31" d="M1880 80.002 C1880 80.002 1860 80.002 1860 80.002 1860 80.002 1860 60.001 1860 60.001 1860 60.001 1840 60.002 1840 60.002 1840 60.002 1840 80.002 1840 80.002 1840 80.002 1820 80.002 1820 80.002 L1820 20.002 1840 20.002 1840 50.002 1860 50.002 1860 20.002 1880 20.002 1880 80.002 Z" fill="#00a2ff" fill-opacity="1" stroke="none"/>
 </g>
 <g id="j">
  <path id="path-32" d="M2090 10 C2090 10 2090 20 2090 20 L2100 20 2100 90 2090 90 2089.689 100 2020 100 2020 90 2010 90 2010 40 2030 40 2030 10 Z" fill="#000000" fill-opacity="1" stroke="none"/>
  <path id="path-33" d="M2080 30.007 C2080 30.007 2080 70.007 2080 70.007 2080 70.007 2070 70.007 2070 70.007 2070 70.007 2070 80 2070 80 2070 80 2030 80 2030 80 L2030 70.003 2020 70.003 2020 50.002 2040 50.002 2040 70.001 2060 70.005 2060 30.005 2040 30 2040 20 2080 20.006 Z" fill="#00a2ff" fill-opacity="1" stroke="none"/>
 </g>
 <g id="i">
  <path id="path-34" d="M1910 10 L1990 10 C1990 10 1990 20 1990 20 L2000 20 2000 50 1970 50 1970 60 1990 60 1990 70 2000 70 2000 100 1920 100 1920 90 1910 90 1910 60 1930 60 1930 40 1910 40 1910 10 Z" fill="#000000" fill-opacity="1" stroke="none"/>
  <path id="path-35" d="M1960 30.004 C1960 30.004 1960 70.006 1960 70.006 1960 70.006 1980 70.005 1980 70.005 1980 70.005 1980 80 1980 80 1980 80 1920 80 1920 80 L1920 70.001 1940 70.002 1940 30.002 1920 30.002 1920 20.001 1980 20.001 1980 30.004 Z" fill="#00a2ff" fill-opacity="1" stroke="none"/>
 </g>
 <g id="h">
  <path id="path-36" d="M2110 10 L2190 10 C2190 10 2190 20 2190 20 L2200 20 2200 100 2120 100 2120 90 2110 90 Z" fill="#000000" fill-opacity="1" stroke="none"/>
  <path id="path-37" d="M2180 80.002 C2180 80.002 2160 80.002 2160 80.002 2160 80.002 2160 60.003 2160 60.003 2160 60.003 2140 60.004 2140 60.004 2140 60.004 2140 80.002 2140 80.002 2140 80.002 2120 80.002 2120 80.002 L2120 20.004 2140 20.004 2140 50.004 2160 50.004 2160 20.004 2180 20.004 2180 50 2170 50.001 2170 60.001 2180 60.002 2180 80.002 Z" fill="#00a2ff" fill-opacity="1" stroke="none"/>
 </g>
 <g id="g">
  <path id="path-38" d="M1710 20 L1720 20 1720 10 1780 10 1780 20 1790 20 C1790 20 1790 30 1790 30 1790 30 1800 30 1800 30 L1800 90 1790 90 1790 100 1730 100 1730 90 1720 90 1720 80 1710 80 1710 20 Z" fill="#000000" fill-opacity="1" stroke="none"/>
  <path id="path-39" d="M1720 70.001 L1720 30.001 1730 30.001 1730 20 C1730 20 1770 20.008 1770 20.008 1770 20.008 1770 30.008 1770 30.008 L1780 30.008 1780 40.008 1760 40.008 1760 30.008 1740 30.008 1740 70.008 1760 70.008 1760 60.003 1750 60.003 1750 50.004 1780 50.004 1780 80 1770 80 1770 80 1770 70.003 1760 70.003 1760 80 1730 80 1730 70.001 1720 70.001 Z" fill="#00a2ff" fill-opacity="1" stroke="none"/>
 </g>
 <g id="f">
  <path id="path-40" d="M1610 10 L1689.541 10 1690 20 1699.999 20 1699.996 50 1689.997 50 1689.997 80 1659.994 80 1659.997 100 1619.998 100 1619.998 90 C1619.998 90 1610 90 1610 90 1610 90 1610 10 1610 10 Z" fill="#000000" fill-opacity="1" stroke="none"/>
  <path id="path-41" d="M1620 20 L1680 20 1680 30 1640 30 1640 40 1670 40 1670 60 1640 60 1640 80 C1640 80 1620 80 1620 80 Z" fill="#00a2ff" fill-opacity="1" stroke="none"/>
 </g>
 <g id="e">
  <path id="path-42" d="M1510 10 L1590 10 1589.999 20 1600.999 20 1600.999 50 1589.999 50 1589.998 70 1600.998 70 1600.998 100 1519.998 100 1519.997 90 C1519.997 90 1509.999 90 1509.999 90 1509.999 90 1510 10 1510 10 Z" fill="#000000" fill-opacity="1" stroke="none"/>
  <path id="path-43" d="M1520 20 L1580 20 1580 30 1540 30 1540 40 1570 40 1570 60 1540 60 1540 70 1580 70 1580 80 1520 80 Z" fill="#00a2ff" fill-opacity="1" stroke="none"/>
 </g>
 <g id="d">
  <path id="path-44" d="M1410 90 L1410 10 1480 10 1480 20 1490 20 1490 30 1500 30 1500 90 1490 90 1490 100 1420 100 1420 90 1410 90 Z" fill="#000000" fill-opacity="1" stroke="none"/>
  <path id="path-45" d="M1420 80 L1420 20 1470 20 1470 30 1480 30 1480 70 1470 70 1470 80 1420 80 Z M1440 70 L1460 70 1460 30 1440 30 1440 70 Z" fill="#00a2ff" fill-opacity="1" stroke="none"/>
 </g>
 <g id="c">
  <path id="path-46" d="M1310 20 L1320 20 1320 10 1380 10 1380 20 1390 20 C1390 20 1390 30 1390 30 1390 30 1400 30 1400 30 L1400 90 1390 90 1390 100 1330 100 1330 90 1320 90 1320 80 1310 80 1310 20 Z" fill="#000000" fill-opacity="1" stroke="none"/>
  <path id="path-47" d="M1320 70 L1320 30 1330 30 1330 20 C1330 20 1370 20 1370 20 1370 20 1370 30 1370 30 L1380 30 1380 40 1360 40 1360 30 1340 30 1340 70 1360 70 1360 60 1380 60 1380 70 1370 70 1370 80 1330 80 1330 70 1320 70 Z" fill="#00a2ff" fill-opacity="1" stroke="none"/>
 </g>
 <g id="b">
  <path id="path-48" d="M1210 90 L1210 10 1280 10 1280 20 1290 20 1290 30 1300 30 1300 90 1290 90 1290 100 1220 100 1220 90 Z" fill="#000000" fill-opacity="1" stroke="none"/>
  <path id="path-49" d="M1220 80 L1220 20 1270 20 1270 30 1280 30 1280 50 1270 50 1270 60 1280 60 1280 70 1270 70 1270 80 1220 80 Z M1240 70 L1260 70 1260 60 1240 60 1240 70 Z M1240 50 L1260 50 1260 30 1240 30 1240 50 Z" fill="#00a2ff" fill-opacity="1" stroke="none"/>
 </g>
 <g id="a">
  <path id="path-50" d="M1110 20 L1120 20 1120 10 1180 10 1180 20 1190 20 1190 30 1200 30 1200 100 1120 100 1120 90 1110 90 1110 20 Z" fill="#000000" fill-opacity="1" stroke="none"/>
  <path id="path-51" d="M1120 80 L1120 30 1130 30 1130 20 1170 20 1170 30 1180 30 1180 80 1160 80 1160 60 1140 60 1140 80 1120 80 Z M1140 50 L1160 50 1160 30 1140 30 1140 50 Z" fill="#00a2ff" fill-opacity="1" stroke="none"/>
 </g>
 <g id="9">
  <path id="path-52" d="M910 20 L920 20 920 10 980 10 980 20 990 20 990 30 1000 30 1000 80 990 80 990 90 980 90 980 100 930 100 930 90 C930 90 920 90 920 90 920 90 920 60 920 60 L910 60 Z" fill="#000000" fill-opacity="1" stroke="none"/>
  <path id="path-53" d="M930 80 L930 70 960 70 960 60 930 60 930 50 920 50 920 30 930 30 930 20 970 20 970 30 980 30 980 70 970 70 970 80 930 80 Z M940 50 L960 50 960 30 940 30 940 50 Z" fill="#00a2ff" fill-opacity="1" stroke="none"/>
 </g>
 <g id="8">
  <path id="path-54" d="M810 20.001 L820 20.001 820 10.001 880 10.001 880 20.001 890 20.001 890 30.001 900 30.001 900 90.001 890 90.001 890 100 C890 100 830 100 830 100 830 100 830 90.001 830 90.001 830 90.001 820 90.001 820 90.001 820 90.001 820 80.001 820 80.001 L810 80.001 Z" fill="#000000" fill-opacity="1" stroke="none"/>
  <path id="path-55" d="M830 80 L830 70 820 70 820 50 830 50 830 40 820 40 820 30 830 30 830 20 870 20 870 30 880 30 880 40 870 40 870 50 880 50 880 70 870 70 870 80 830 80 Z M840 70 L860 70 860 50 840 50 840 70 Z M840 40 L860 40 860 30 840 30 840 40 Z" fill="#00a2ff" fill-opacity="1" stroke="none"/>
 </g>
 <g id="7">
  <path id="path-56" d="M709.998 10 L789.997 10 789.997 20 799.997 20 799.997 60 789.997 60 789.997 70 779.997 70 779.997 100 739.997 100 739.997 90 729.997 90 729.998 50 C729.998 50 719.998 50 719.998 50 719.998 50 720 40 720 40 720 40 710 40 710 40 710 40 709.998 10 709.998 10 Z" fill="#000000" fill-opacity="1" stroke="none"/>
  <path id="path-57" d="M720 20 L780 20 780 40 770 40 770 50 760 50 760 60 760 80 740 80 740 50 C740 50 750 50 750 50 750 50 750 40 750 40 750 40 760 40 760 40 760 40 760 30 760 30 L720 30 720 20 Z" fill="#00a2ff" fill-opacity="1" stroke="none"/>
 </g>
 <g id="6">
  <path id="path-58" d="M610 20 L620 20 620 10 680 10 680 20 690 20 690 40 700 40 700 90 690 90 690 100 630 100 630 90 C630 90 620 90 620 90 620 90 620 80 620 80 L610 80 Z" fill="#000000" fill-opacity="1" stroke="none"/>
  <path id="path-59" d="M630 80 L630 70 620 70.004 620 30.004 630 30.004 630 20.004 670 20.004 670 30.004 C670 30.004 640 30.004 640 30.004 L640 40.002 670 40.002 670 50 680 50 680 70 670 70.004 670 80 630 80 Z M640 70 L660 70 660 50 640 50 640 70 Z" fill="#00a2ff" fill-opacity="1" stroke="none"/>
 </g>
 <g id="5">
  <path id="path-60" d="M510 10 L590 10 590 20 600 20 600 80 590 80 590 90 580 90 580 100 530 100 530 90 520 90 520 80 510 80 510 10 Z" fill="#000000" fill-opacity="1" stroke="none"/>
  <path id="path-61" d="M520 20 L580 20 580 30 540 30 540 40 570 40 570 50 580 50 580 70 570 70 570 80 530 80 530 70 520 70 520 60 540 60 540 70 560 70 560 50 520 50 520 20 Z" fill="#00a2ff" fill-opacity="1" stroke="none"/>
 </g>
 <g id="4">
  <path id="path-62" d="M410 10 L490 10 490 20 500 20 500 100 460 100 460 90 450 90 450 80 430 80 430.264 70 420 70 420 60 410 60 410 10 Z" fill="#000000" fill-opacity="1" stroke="none"/>
  <path id="path-63" d="M420 20 L440 20 440 50 460 50 460 20 480 20 480 80 460 80 460 60 430 60 430 50 420 50 420 20 Z" fill="#00a2ff" fill-opacity="1" stroke="none"/>
 </g>
 <g id="3">
  <path id="path-64" d="M310 20 L320 20 320 10 380 10 380 20 390 20 390 30 C390 30 400 30 400 30 400 30 400 90 400 90 L390 90 390 100 330 100 330 90 320 90 320 80 310 80 310 20 Z" fill="#000000" fill-opacity="1" stroke="none"/>
  <path id="path-65" d="M320 30 L330 30 330 20 370 20 370 30 380 30 380 40 370 40 370 50 380 50 380 70 370 70 370 80 C370 80 330 80 330 80 330 80 330 70 330 70 L320 70 320 60 340 60 340 70 360 70 360 50 340 50 340 40 360 40 360 30 330 30 330 40 C330 40 320.65 42.426 320 40 319.35 37.575 320 30 320 30 Z" fill="#00a2ff" fill-opacity="1" stroke="none"/>
 </g>
 <g id="2">
  <path id="path-66" d="M210 50.003 L210 20.003 219.997 20.003 219.997 10.003 279.997 10.003 279.997 20.003 289.997 20.003 289.997 30.003 299.997 30.003 300 100 C300 100 219.997 100.003 219.997 100.003 219.997 100.003 219.997 90.003 219.997 90.003 L210 90.003 210 60.003 219.997 60.003 219.997 50.003 C219.997 50.003 210 50.003 210 50.003 Z" fill="#000000" fill-opacity="1" stroke="none"/>
  <path id="path-67" d="M220 30 L230 30 230 20 270 20 270 30 280 30 280 50 270 50 270 60 250 60 250 70 280 70 280 80 220 80 C220 80 220 70 220 70 220 70 230 70 230 70 L230 60 240 60 240 50 260 50 260 30 240 30 240 40 220 40 220 30 Z" fill="#00a2ff" fill-opacity="1" stroke="none"/>
 </g>
 <g id="1">
  <path id="path-68" d="M130 10 L170 10 170 20 180 20 180 60 190 60 190 70 200 70 200 100 120 100 120 90 110 90 110 60 130 60 130 50 120 50 120 20 130 20 Z" fill="#000000" fill-opacity="1" stroke="none"/>
  <path id="path-69" d="M120 70 L140 70 140 40 130 40 130 30 140 30 140 20 160 20 160 70 180 70 180 80 120 80 120 70 Z" fill="#00a2ff" fill-opacity="1" stroke="none"/>
 </g>
 <g id="0">
  <path id="path-70" d="M10 20 L20 20 20 10 80 10 80 20 90 20 90 30 100 30 100 90 90 90 90 100 30 100 30 90 20 90 20 80 C20 80 8.285 81.893 10 80 11.715 78.107 10 20 10 20 Z" fill="#000000" fill-opacity="1" stroke="none"/>
  <path id="path-71" d="M30 80 L30 70 20 70 20 30 30 30 30 20 70 20 70 30 80 30 80 70 70 70 70 80 30 80 Z M40 70 L60 70 60 50 50 50 50 40 60 40 60 30 40 30 40 50 50 50 50 60 40 60 40 70 Z" fill="#00b0ff" fill-opacity="1" stroke="none"/>
 </g>
 <g id="-">
  <path id="path-72" d="M110 140 L190 140 190 150 200 150 200 180 120 180 120 170 110 170 110 140 Z" fill="#000000" fill-opacity="1" stroke="none"/>
  <path id="path-73" d="M120 150 L180 150 180 160 120 160 120 150 Z" fill="#00a2ff" fill-opacity="1" stroke="none"/>
 </g>
 <g id="/">
  <path id="path-74" d="M20 190 L20 180 10 180 10 150 20 150 20 140 30 140 30 130 40 130 40 120 50 120 50 110 90 110 90 120 100 120 100 150 90 150 90 160 80 160 80 170 70 170 70 177 60 180 60 190 20 190 Z" fill="#000000" fill-opacity="1" stroke="none"/>
  <path id="path-75" d="M80 120 L80 130 70 130 70 140 60 140 60 150 50 150 50 160 40 160 40 170 20 170 20 160 30 160 30 150 40 150 40 140 50 140 50 130 C50 130 60.91 130.301 60 130 59.09 129.699 60 120 60 120 L80 120 Z" fill="#00a2ff" fill-opacity="1" stroke="none"/>
 </g>
</svg>
