<?xml version="1.0" encoding="UTF-8"?>
<svg width="1070px" height="90px" viewBox="0 0 1070 90" xmlns="http://www.w3.org/2000/svg" xmlns:xlink="http://www.w3.org/1999/xlink" version="1.1">
 <!-- Generated by Pixelmator Pro 1.4.1 -->
 <g id="new-group-copier-8">
  <path id="path" d="M0 0 L80 0 80 10 90 10 90 90 60 90 60 80 50 80 50 70 40 70 40 90 10 90 10 80 0 80 0 0 Z" fill="#000000" fill-opacity="1" stroke="none"/>
  <path id="path-1" d="M10 70 L10 10 30 10 30 30 50 30 50 10 70 10 70 70 60 70 60 40 50 40 50 50 30 50 30 40 20 40 20 70 10 70 Z" fill="#00a2ff" fill-opacity="1" stroke="none"/>
 </g>
 <g id="new-group-copier-7">
  <path id="path-2" d="M70 10 L80 10 80 0 140 0 140 10 150 10 C150 10 150 20 150 20 150 20 160 20 160 20 L160 80 150 80 150 90 90 90 90 80 80 80 80 70 70 70 70 10 Z" fill="#000000" fill-opacity="1" stroke="none"/>
  <path id="path-3" d="M90 70 L90 60 80 60 80 20 90 20 90 10 130 10 130 20 140 20 140 60 130 60 130 70 90 70 Z M100 60 L120 60 120 20 100 20 100 60 Z" fill="#00a2ff" fill-opacity="1" stroke="none"/>
 </g>
 <g id="new-group-copier-6">
  <path id="path-4" d="M140 0 L140 80 150 80 150 90 180 90 180 80 190 80 190 90 230 90 230 10 220 10 220 0 190 0 190 10 180 10 180 0 140 0 Z" fill="#000000" fill-opacity="1" stroke="none"/>
  <path id="path-5" d="M150 70 L150 10 170 10 170 20 180 20 180 30 190 30 190 40 200 40 200 20 200 10 210 10 210 70 190 70 190 60 180 60 180 50 170 50 170 40 160 40 160 70 150 70 Z" fill="#00a2ff" fill-opacity="1" stroke="none"/>
 </g>
 <g id="new-group-copier-5">
  <path id="path-6" d="M210 10 L220 10 220 0 280 0 280 10 290 10 C290 10 290 20 290 20 290 20 300 20 300 20 L300 80 290 80 290 90 230 90 230 80 220 80 220 70 210 70 210 10 Z" fill="#000000" fill-opacity="1" stroke="none"/>
  <path id="path-7" d="M230 70 L230 60 220 60 220 20 230 20 230 10 270 10 270 20 280 20 280 60 270 60 270 70 230 70 Z M240 60 L260 60 260 20 240 20 240 60 Z" fill="#00a2ff" fill-opacity="1" stroke="none"/>
 </g>
 <g id="new-group-copier-4">
  <path id="path-8" d="M280 20 L340 20 340 30 350 30 350 70 290 70 290 60 280 60 280 20 Z" fill="#000000" fill-opacity="1" stroke="none"/>
  <path id="path-9" d="M290 30 L290 50 330 50 330 30 290 30 Z" fill="#00a2ff" fill-opacity="1" stroke="none"/>
 </g>
 <g id="new-group-copier-2">
  <path id="path-10" d="M330 0 L400 0 400 10 410 10 410 20 420 20 420 90 340 90 340 80 330 80 330 0 Z" fill="#000000" fill-opacity="1" stroke="none"/>
  <path id="path-11" d="M340 70 L340 10 390 10 390 20 400 20 400 40 390 40 390 50 400 50 400 70 380 70 380 50 360 50 360 70 340 70 Z M360 40 L380 40 380 20 360 20 360 40 Z" fill="#00a2ff" fill-opacity="1" stroke="none"/>
 </g>
 <g id="new-group-copier-3">
  <path id="path-12" d="M400 0 L480 0 480 10 490 10 490 40 480 40 480 60 490 60 490 90 410 90 410 80 C410 80 400.58 82.285 400 80 399.42 77.715 400 0 400 0 Z" fill="#000000" fill-opacity="1" stroke="none"/>
  <path id="path-13" d="M410 10 L470 10 470 20 430 20 430 30 460 30 460 50 430 50 430 60 470 60 470 70 410 70 Z" fill="#00a2ff" fill-opacity="1" stroke="none"/>
 </g>
 <g id="new-group-copier-1">
  <path id="path-14" d="M470 0.003 L540 0.003 540 10.003 550 10.003 550 20.003 560 20.003 560 60.002 550 60.002 550 70.002 520 70.003 520 90 C520 90 480 90 480 90 480 90 480 80.001 480 80.001 L470 80 Z" fill="#000000" fill-opacity="1" stroke="none"/>
  <path id="path-15" d="M480 70 L480 10 530 10 530 20 540 20 540 40 530 40 530 50 500 50 500 70 480 70 Z M500 40 L520 40 520 20 500 20 500 40 Z" fill="#00a2ff" fill-opacity="1" stroke="none"/>
 </g>
 <g id="new-group-copier">
  <path id="path-16" d="M540 10 L550 10 550 0 610 0 610 10 620 10 C620 10 620 20 620 20 620 20 630 20 630 20 L630 80 620 80 620 90 560 90 560 80 550 80 550 70 540 70 540 10 Z" fill="#000000" fill-opacity="1" stroke="none"/>
  <path id="path-17" d="M560 70 L560 60 550 60 550 20 560 20 560 10 600 10 600 20 610 20 610 60 600 60 600 70 560 70 Z M570 60 L590 60 590 20 570 20 570 60 Z" fill="#00a2ff" fill-opacity="1" stroke="none"/>
 </g>
 <g id="/-copier">
  <path id="path-18" d="M630 90 L630 80 620 80 620 50 630 50 630 40 640 40 640 30 650 30 650 20 660 20 660 10 700 10 700 20 710 20 710 50 700 50 700 60 690 60 690 70 680 70 680 77 670 80 670 90 630 90 Z" fill="#000000" fill-opacity="1" stroke="none"/>
  <path id="path-19" d="M690 20 L690 30 680 30 680 40 670 40 670 50 660 50 660 60 650 60 650 70 630 70 630 60 640 60 640 50 650 50 650 40 660 40 660 30 C660 30 670.91 30.301 670 30 669.09 29.699 670 20 670 20 L690 20 Z" fill="#00a2ff" fill-opacity="1" stroke="none"/>
 </g>
 <g id="new-group">
  <path id="path-20" d="M700 0 L740 0 740 40 780 40 780 50 790 50 790 90 710 90 710 80 700 80 700 0 Z" fill="#000000" fill-opacity="1" stroke="none"/>
  <path id="path-21" d="M770 70 C770 70 710 70 710 70 L710 10 730 10 730 60 750 60 750 50 770 50 Z" fill="#00a2ff" fill-opacity="1" stroke="none"/>
 </g>
 <g id="new-group-1">
  <path id="path-22" d="M770 0 L850 0 850 10 860 10 860 40 850 40 850 60 860 60 860 90 780 90 780 80 C780 80 770.58 82.285 770 80 769.42 77.715 770 0 770 0 Z" fill="#000000" fill-opacity="1" stroke="none"/>
  <path id="path-23" d="M780 10 L840 10 840 20 800 20 800 30 830 30 830 50 800 50 800 60 840 60 840 70 780 70 Z" fill="#00a2ff" fill-opacity="1" stroke="none"/>
 </g>
 <g id="new-group-2">
  <path id="path-24" d="M840 0 L910 0 910 10 920 10 920 20 930 20 930 90 850 90 850 80 840 80 840 0 Z" fill="#000000" fill-opacity="1" stroke="none"/>
  <path id="path-25" d="M850 70 L850 10 900 10 900 20 910 20 910 40 900 40 900 50 910 50 910 70 890 70 890 50 870 50 870 70 850 70 Z M870 40 L890 40 890 20 870 20 870 40 Z" fill="#00a2ff" fill-opacity="1" stroke="none"/>
 </g>
 <g id="new-group-3">
  <path id="path-26" d="M910 0 L910 80 920 80 920 90 950 90 950 80 960 80 960 90 1000 90 1000 10 990 10 990 0 960 0 960 10 950 10 950 0 910 0 Z" fill="#000000" fill-opacity="1" stroke="none"/>
  <path id="path-27" d="M920 70 L920 10 940 10 940 20 950 20 950 30 960 30 960 40 970 40 970 20 970 10 980 10 980 70 960 70 960 60 950 60 950 50 940 50 940 40 930 40 930 70 920 70 Z" fill="#00a2ff" fill-opacity="1" stroke="none"/>
 </g>
 <g id="new-group-4">
  <path id="path-28" d="M980 10 L990 10 990 0 1050 0 1050 10 1060 10 1060 20 1070 20 1070 90 990 90 990 80 980 80 980 10 Z" fill="#000000" fill-opacity="1" stroke="none"/>
  <path id="path-29" d="M990 70 L990 20 1000 20 1000 10 1040 10 1040 20 1050 20 1050 70 1030 70 1030 50 1010 50 1010 70 990 70 Z M1010 40 L1030 40 1030 20 1010 20 1010 40 Z" fill="#00a2ff" fill-opacity="1" stroke="none"/>
 </g>
</svg>
