<?xml version="1.0" encoding="UTF-8"?>
<svg width="580px" height="90px" viewBox="0 0 580 90" xmlns="http://www.w3.org/2000/svg" xmlns:xlink="http://www.w3.org/1999/xlink" version="1.1">
 <!-- Generated by Pixelmator Pro 1.4.1 -->
 <g id="p-copier">
  <path id="path" d="M0 0.003 L70 0.003 70 10.003 80 10.003 80 20.003 90 20.003 90 60.002 80 60.002 80 70.002 50 70.003 50 90 C50 90 10 90 10 90 10 90 10 80.001 10 80.001 L0 80 Z" fill="#000000" fill-opacity="1" stroke="none"/>
  <path id="path-1" d="M10 70 L10 10 60 10 60 20 70 20 70 40 60 40 60 50 30 50 30 70 10 70 Z M30 40 L50 40 50 20 30 20 30 40 Z" fill="#00a2ff" fill-opacity="1" stroke="none"/>
 </g>
 <g id="r-copier">
  <path id="path-2" d="M70 0 L140 0 140 10 150 10 150 20 160 20 160 90 80 90 80 80 70 80 70 0 Z" fill="#000000" fill-opacity="1" stroke="none"/>
  <path id="path-3" d="M80 70 L80 10 130 10 130 20 140 20 140 40 130 40 130 50 140 50 140 70 120 70 120 50 100 50 100 70 80 70 Z M100 40 L120 40 120 20 100 20 100 40 Z" fill="#00a2ff" fill-opacity="1" stroke="none"/>
 </g>
 <g id="o-copier">
  <path id="path-4" d="M140 10 L150 10 150 0 210 0 210 10 220 10 C220 10 220 20 220 20 220 20 230 20 230 20 L230 80 220 80 220 90 160 90 160 80 150 80 150 70 140 70 140 10 Z" fill="#000000" fill-opacity="1" stroke="none"/>
  <path id="path-5" d="M160 70 L160 60 150 60 150 20 160 20 160 10 200 10 200 20 210 20 210 60 200 60 200 70 160 70 Z M170 60 L190 60 190 20 170 20 170 60 Z" fill="#00a2ff" fill-opacity="1" stroke="none"/>
 </g>
 <g id="b-copier">
  <path id="path-6" d="M210 80 L210 0 280 0 280 10 290 10 290 20 300 20 300 80 290 80 290 90 220 90 220 80 Z" fill="#000000" fill-opacity="1" stroke="none"/>
  <path id="path-7" d="M220 70 L220 10 270 10 270 20 280 20 280 40 270 40 270 50 280 50 280 60 270 60 270 70 220 70 Z M240 60 L260 60 260 50 240 50 240 60 Z M240 40 L260 40 260 20 240 20 240 40 Z" fill="#00a2ff" fill-opacity="1" stroke="none"/>
 </g>
 <g id="l-copier">
  <path id="path-8" d="M280 0 L320 0 320 40 360 40 360 50 370 50 370 90 290 90 290 80 280 80 280 0 Z" fill="#000000" fill-opacity="1" stroke="none"/>
  <path id="path-9" d="M350 70 C350 70 290 70 290 70 L290 10 310 10 310 60 330 60 330 50 350 50 Z" fill="#00a2ff" fill-opacity="1" stroke="none"/>
 </g>
 <g id="e-copier">
  <path id="path-10" d="M351 0 L431 0 430.999 10 441.999 10 441.999 40 430.999 40 430.998 60 441.998 60 441.998 90 360.998 90 360.997 80 C360.997 80 350.999 80 350.999 80 350.999 80 351 0 351 0 Z" fill="#000000" fill-opacity="1" stroke="none"/>
  <path id="path-11" d="M361 10 L421 10 421 20 381 20 381 30 411 30 411 50 381 50 381 60 421 60 421 70 361 70 Z" fill="#00a2ff" fill-opacity="1" stroke="none"/>
 </g>
 <g id="m-copier">
  <path id="path-12" d="M420 0 L500 0 500 10 510 10 510 90 480 90 480 80 470 80 470 70 460 70 460 90 430 90 430 80 420 80 420 0 Z" fill="#000000" fill-opacity="1" stroke="none"/>
  <path id="path-13" d="M430 70 L430 10 450 10 450 30 470 30 470 10 490 10 490 70 480 70 480 40 470 40 470 50 450 50 450 40 440 40 440 70 430 70 Z" fill="#00a2ff" fill-opacity="1" stroke="none"/>
 </g>
 <g id="s-copier">
  <path id="path-14" d="M490 10 L500 10 500 0 560 0 560 10 570 10 570 40 580 40 580 80 570 80 570 90 510 90 510 80 500 80 500 50 490 50 Z" fill="#000000" fill-opacity="1" stroke="none"/>
  <path id="path-15" d="M500 20 L510 20 510 10 550 10 550 20 520 20 520 30 550 30 550 40 560 40 560 60 550 60 550 70 510 70 510 60 540 60 540 50 510 50 510 40 500 40 500 20 Z" fill="#00a2ff" fill-opacity="1" stroke="none"/>
 </g>
</svg>
