<?xml version="1.0" encoding="UTF-8"?>
<svg width="780px" height="90px" viewBox="0 0 780 90" xmlns="http://www.w3.org/2000/svg" xmlns:xlink="http://www.w3.org/1999/xlink" version="1.1">
 <!-- Generated by Pixelmator Pro 1.4.1 -->
 <g id="q-copier">
  <path id="path" d="M0 10 L10 10 10 0 70 0 70 10 80 10 C80 10 80 20 80 20 80 20 90 20 90 20 L90 80 80 80 80 90 20 90 20 80 10 80 10 70 0 70 0 10 Z" fill="#000000" fill-opacity="1" stroke="none"/>
  <path id="path-1" d="M10 60.009 L10 20.009 20 20.009 20 10.009 C20 10.009 60 10.009 60 10.009 60 10.009 60 20.009 60 20.009 L70 20.009 70 50 60 50 60 40.001 50 40.001 50 20.009 30 20.009 30 60.009 50 60.009 50 50.007 40 50.007 40 40.008 50 40.004 50 50.004 60 50.005 60 60.005 70 60.006 70 70 60 70 60 60.003 50 60.006 50 70 20 70 20 60.009 10 60.009 Z" fill="#00a2ff" fill-opacity="1" stroke="none"/>
 </g>
 <g id="u-copier">
  <path id="path-2" d="M150 0 C150 0 150 10 150 10 L160 10 160 80 150 80 150 90 80 90 80 80 70 80 70 0 Z" fill="#000000" fill-opacity="1" stroke="none"/>
  <path id="path-3" d="M140 60.001 C140 60.001 130 60.002 130 60.002 130 60.002 130 70 130 70 130 70 90 70 90 70 L90 60.003 80 60.003 80 10.003 100 10.002 100 60.002 120 60 120 10 C120 10 140 10.001 140 10.001 Z" fill="#00a2ff" fill-opacity="1" stroke="none"/>
 </g>
 <g id="e-copier-1">
  <path id="path-4" d="M141 0 L221 0 220.999 10 231.999 10 231.999 40 220.999 40 220.998 60 231.998 60 231.998 90 150.998 90 150.997 80 C150.997 80 140.999 80 140.999 80 140.999 80 141 0 141 0 Z" fill="#000000" fill-opacity="1" stroke="none"/>
  <path id="path-5" d="M151 10 L211 10 211 20 171 20 171 30 201 30 201 50 171 50 171 60 211 60 211 70 151 70 Z" fill="#00a2ff" fill-opacity="1" stroke="none"/>
 </g>
 <g id="s-copier">
  <path id="path-6" d="M210 10 L220 10 220 0 280 0 280 10 290 10 290 40 300 40 300 80 290 80 290 90 230 90 230 80 220 80 220 50 210 50 Z" fill="#000000" fill-opacity="1" stroke="none"/>
  <path id="path-7" d="M220 20 L230 20 230 10 270 10 270 20 240 20 240 30 270 30 270 40 280 40 280 60 270 60 270 70 230 70 230 60 260 60 260 50 230 50 230 40 220 40 220 20 Z" fill="#00a2ff" fill-opacity="1" stroke="none"/>
 </g>
 <g id="t-copier">
  <path id="path-8" d="M280 0 L360 0 360 10 370 10 370 40 350 40 350 90 310 90 310 80 300 80 300 30 280 30 280 0 Z" fill="#000000" fill-opacity="1" stroke="none"/>
  <path id="path-9" d="M290 10 L350 10 350 20 330 20 330 70 310 70 310 20 290 20 290 10 Z" fill="#00a2ff" fill-opacity="1" stroke="none"/>
 </g>
 <g id="i-copier">
  <path id="path-10" d="M350 0 L430 0 C430 0 430 10 430 10 L440 10 440 40 410 40 410 50 430 50 430 60 440 60 440 90 360 90 360 80 350 80 350 50 370 50 370 30 350 30 350 0 Z" fill="#000000" fill-opacity="1" stroke="none"/>
  <path id="path-11" d="M400 20.004 C400 20.004 400 60.006 400 60.006 400 60.006 420 60.005 420 60.005 420 60.005 420 70 420 70 420 70 360 70 360 70 L360 60.001 380 60.002 380 20.002 360 20.002 360 10.001 420 10.001 420 20.004 Z" fill="#00a2ff" fill-opacity="1" stroke="none"/>
 </g>
 <g id="o-copier">
  <path id="path-12" d="M420 10 L430 10 430 0 490 0 490 10 500 10 C500 10 500 20 500 20 500 20 510 20 510 20 L510 80 500 80 500 90 440 90 440 80 430 80 430 70 420 70 420 10 Z" fill="#000000" fill-opacity="1" stroke="none"/>
  <path id="path-13" d="M440 70 L440 60 430 60 430 20 440 20 440 10 480 10 480 20 490 20 490 60 480 60 480 70 440 70 Z M450 60 L470 60 470 20 450 20 450 60 Z" fill="#00a2ff" fill-opacity="1" stroke="none"/>
 </g>
 <g id="n-copier">
  <path id="path-14" d="M490 0 L490 80 500 80 500 90 530 90 530 80 540 80 540 90 580 90 580 10 570 10 570 0 540 0 540 10 530 10 530 0 490 0 Z" fill="#000000" fill-opacity="1" stroke="none"/>
  <path id="path-15" d="M500 70 L500 10 520 10 520 20 530 20 530 30 540 30 540 40 550 40 550 20 550 10 560 10 560 70 540 70 540 60 530 60 530 50 520 50 520 40 510 40 510 70 500 70 Z" fill="#00a2ff" fill-opacity="1" stroke="none"/>
 </g>
 <g id="s-copier-1">
  <path id="path-16" d="M560 10 L570 10 570 0 630 0 630 10 640 10 640 40 650 40 650 80 640 80 640 90 580 90 580 80 570 80 570 50 560 50 Z" fill="#000000" fill-opacity="1" stroke="none"/>
  <path id="path-17" d="M570 20 L580 20 580 10 620 10 620 20 590 20 590 30 620 30 620 40 630 40 630 60 620 60 620 70 580 70 580 60 610 60 610 50 580 50 580 40 570 40 570 20 Z" fill="#00a2ff" fill-opacity="1" stroke="none"/>
 </g>
 <g id="?-copier">
  <path id="path-18" d="M690 40 L690 10 700 10 700 0 760 0 760 10 770 10 770 20 780 20 780 60 770 60 770 70 760 70 760 90 720 90 720 80 710 80 710 40 690 40 Z" fill="#000000" fill-opacity="1" stroke="none"/>
  <path id="path-19" d="M700 20 L710 20 710 10 750 10 750 20 760 20 760 40 750 40 750 50 720 50 720 40 740 40 740 20 720 20 720 30 700 30 700 20 Z" fill="#00a2ff" fill-opacity="1" stroke="none"/>
  <path id="path-20" d="M720 60 L740 60 740 70 720 70 720 60 Z" fill="#00a2ff" fill-opacity="1" stroke="none"/>
 </g>
</svg>
