<?xml version="1.0" encoding="UTF-8"?>
<svg width="370px" height="90px" viewBox="0 0 370 90" xmlns="http://www.w3.org/2000/svg" xmlns:xlink="http://www.w3.org/1999/xlink" version="1.1">
 <!-- Generated by Pixelmator Pro 1.4.1 -->
 <g id="l-copier">
  <path id="path" d="M0 0 L40 0 40 40 80 40 80 50 90 50 90 90 10 90 10 80 0 80 0 0 Z" fill="#000000" fill-opacity="1" stroke="none"/>
  <path id="path-1" d="M70 70 C70 70 10 70 10 70 L10 10 30 10 30 60 50 60 50 50 70 50 Z" fill="#00a2ff" fill-opacity="1" stroke="none"/>
 </g>
 <g id="e-copier">
  <path id="path-2" d="M71 0 L151 0 150.999 10 161.999 10 161.999 40 150.999 40 150.998 60 161.998 60 161.998 90 80.998 90 80.997 80 C80.997 80 70.999 80 70.999 80 70.999 80 71 0 71 0 Z" fill="#000000" fill-opacity="1" stroke="none"/>
  <path id="path-3" d="M81 10 L141 10 141 20 101 20 101 30 131 30 131 50 101 50 101 60 141 60 141 70 81 70 Z" fill="#00a2ff" fill-opacity="1" stroke="none"/>
 </g>
 <g id="r-copier">
  <path id="path-4" d="M140 0 L210 0 210 10 220 10 220 20 230 20 230 90 150 90 150 80 140 80 140 0 Z" fill="#000000" fill-opacity="1" stroke="none"/>
  <path id="path-5" d="M150 70 L150 10 200 10 200 20 210 20 210 40 200 40 200 50 210 50 210 70 190 70 190 50 170 50 170 70 150 70 Z M170 40 L190 40 190 20 170 20 170 40 Z" fill="#00a2ff" fill-opacity="1" stroke="none"/>
 </g>
 <g id="n-copier">
  <path id="path-6" d="M210 0 L210 80 220 80 220 90 250 90 250 80 260 80 260 90 300 90 300 10 290 10 290 0 260 0 260 10 250 10 250 0 210 0 Z" fill="#000000" fill-opacity="1" stroke="none"/>
  <path id="path-7" d="M220 70 L220 10 240 10 240 20 250 20 250 30 260 30 260 40 270 40 270 20 270 10 280 10 280 70 260 70 260 60 250 60 250 50 240 50 240 40 230 40 230 70 220 70 Z" fill="#00a2ff" fill-opacity="1" stroke="none"/>
 </g>
 <g id="a-copier">
  <path id="path-8" d="M280 10 L290 10 290 0 350 0 350 10 360 10 360 20 370 20 370 90 290 90 290 80 280 80 280 10 Z" fill="#000000" fill-opacity="1" stroke="none"/>
  <path id="path-9" d="M290 70 L290 20 300 20 300 10 340 10 340 20 350 20 350 70 330 70 330 50 310 50 310 70 290 70 Z M310 40 L330 40 330 20 310 20 310 40 Z" fill="#00a2ff" fill-opacity="1" stroke="none"/>
 </g>
</svg>
