<?xml version="1.0" encoding="UTF-8"?>
<svg width="580px" height="90px" viewBox="0 0 580 90" xmlns="http://www.w3.org/2000/svg" xmlns:xlink="http://www.w3.org/1999/xlink" version="1.1">
 <!-- Generated by Pixelmator Pro 1.4.1 -->
 <g id="s-copier">
  <path id="path" d="M0 10 L10 10 10 0 70 0 70 10 80 10 80 40 90 40 90 80 80 80 80 90 20 90 20 80 10 80 10 50 0 50 Z" fill="#000000" fill-opacity="1" stroke="none"/>
  <path id="path-1" d="M10 20 L20 20 20 10 60 10 60 20 30 20 30 30 60 30 60 40 70 40 70 60 60 60 60 70 20 70 20 60 50 60 50 50 20 50 20 40 10 40 10 20 Z" fill="#00a2ff" fill-opacity="1" stroke="none"/>
 </g>
 <g id="o-copier">
  <path id="path-2" d="M70 10 L80 10 80 0 140 0 140 10 150 10 C150 10 150 20 150 20 150 20 160 20 160 20 L160 80 150 80 150 90 90 90 90 80 80 80 80 70 70 70 70 10 Z" fill="#000000" fill-opacity="1" stroke="none"/>
  <path id="path-3" d="M90 70 L90 60 80 60 80 20 90 20 90 10 130 10 130 20 140 20 140 60 130 60 130 70 90 70 Z M100 60 L120 60 120 20 100 20 100 60 Z" fill="#00a2ff" fill-opacity="1" stroke="none"/>
 </g>
 <g id="l-copier">
  <path id="path-4" d="M140 0 L180 0 180 40 220 40 220 50 230 50 230 90 150 90 150 80 140 80 140 0 Z" fill="#000000" fill-opacity="1" stroke="none"/>
  <path id="path-5" d="M210 70 C210 70 150 70 150 70 L150 10 170 10 170 60 190 60 190 50 210 50 Z" fill="#00a2ff" fill-opacity="1" stroke="none"/>
 </g>
 <g id="u-copier">
  <path id="path-6" d="M290 0 C290 0 290 10 290 10 L300 10 300 80 290 80 290 90 220 90 220 80 210 80 210 0 Z" fill="#000000" fill-opacity="1" stroke="none"/>
  <path id="path-7" d="M280 60.001 C280 60.001 270 60.002 270 60.002 270 60.002 270 70 270 70 270 70 230 70 230 70 L230 60.003 220 60.003 220 10.003 240 10.002 240 60.002 260 60 260 10 C260 10 280 10.001 280 10.001 Z" fill="#00a2ff" fill-opacity="1" stroke="none"/>
 </g>
 <g id="t-copier">
  <path id="path-8" d="M280 0 L360 0 360 10 370 10 370 40 350 40 350 90 310 90 310 80 300 80 300 30 280 30 280 0 Z" fill="#000000" fill-opacity="1" stroke="none"/>
  <path id="path-9" d="M290 10 L350 10 350 20 330 20 330 70 310 70 310 20 290 20 290 10 Z" fill="#00a2ff" fill-opacity="1" stroke="none"/>
 </g>
 <g id="i-copier">
  <path id="path-10" d="M350 0 L430 0 C430 0 430 10 430 10 L440 10 440 40 410 40 410 50 430 50 430 60 440 60 440 90 360 90 360 80 350 80 350 50 370 50 370 30 350 30 350 0 Z" fill="#000000" fill-opacity="1" stroke="none"/>
  <path id="path-11" d="M400 20.004 C400 20.004 400 60.006 400 60.006 400 60.006 420 60.005 420 60.005 420 60.005 420 70 420 70 420 70 360 70 360 70 L360 60.001 380 60.002 380 20.002 360 20.002 360 10.001 420 10.001 420 20.004 Z" fill="#00a2ff" fill-opacity="1" stroke="none"/>
 </g>
 <g id="o-copier-1">
  <path id="path-12" d="M420 10 L430 10 430 0 490 0 490 10 500 10 C500 10 500 20 500 20 500 20 510 20 510 20 L510 80 500 80 500 90 440 90 440 80 430 80 430 70 420 70 420 10 Z" fill="#000000" fill-opacity="1" stroke="none"/>
  <path id="path-13" d="M440 70 L440 60 430 60 430 20 440 20 440 10 480 10 480 20 490 20 490 60 480 60 480 70 440 70 Z M450 60 L470 60 470 20 450 20 450 60 Z" fill="#00a2ff" fill-opacity="1" stroke="none"/>
 </g>
 <g id="n-copier">
  <path id="path-14" d="M490 0 L490 80 500 80 500 90 530 90 530 80 540 80 540 90 580 90 580 10 570 10 570 0 540 0 540 10 530 10 530 0 490 0 Z" fill="#000000" fill-opacity="1" stroke="none"/>
  <path id="path-15" d="M500 70 L500 10 520 10 520 20 530 20 530 30 540 30 540 40 550 40 550 20 550 10 560 10 560 70 540 70 540 60 530 60 530 50 520 50 520 40 510 40 510 70 500 70 Z" fill="#00a2ff" fill-opacity="1" stroke="none"/>
 </g>
</svg>
