<?xml version="1.0" encoding="UTF-8"?>
<svg width="470px" height="90px" viewBox="0 0 470 90" xmlns="http://www.w3.org/2000/svg" xmlns:xlink="http://www.w3.org/1999/xlink" version="1.1">
 <!-- Generated by Pixelmator Pro 1.4.1 -->
 <g id="t-copier">
  <path id="path" d="M0 0 L80 0 80 10 90 10 90 40 70 40 70 90 30 90 30 80 20 80 20 30 0 30 0 0 Z" fill="#000000" fill-opacity="1" stroke="none"/>
  <path id="path-1" d="M10 10 L70 10 70 20 50 20 50 70 30 70 30 20 10 20 10 10 Z" fill="#00a2ff" fill-opacity="1" stroke="none"/>
 </g>
 <g id="k-copier">
  <path id="path-2" d="M70 0 L150 0 C150 0 150 10 150 10 L160 10 160 90 80 90 80 80 70 80 Z" fill="#000000" fill-opacity="1" stroke="none"/>
  <path id="path-3" d="M140 70.002 C140 70.002 120 70.002 120 70.002 120 70.002 120 50.001 120 50.001 120 50.001 100 50.002 100 50.002 100 50.002 100 70.002 100 70.002 100 70.002 80 70.002 80 70.002 L80 10.002 100 10.002 100 40.002 120 40.002 120 10.002 140 10.002 140 70.002 Z" fill="#00a2ff" fill-opacity="1" stroke="none"/>
 </g>
 <g id="a-copier">
  <path id="path-4" d="M140 10 L150 10 150 0 210 0 210 10 220 10 220 20 230 20 230 90 150 90 150 80 140 80 140 10 Z" fill="#000000" fill-opacity="1" stroke="none"/>
  <path id="path-5" d="M150 70 L150 20 160 20 160 10 200 10 200 20 210 20 210 70 190 70 190 50 170 50 170 70 150 70 Z M170 40 L190 40 190 20 170 20 170 40 Z" fill="#00a2ff" fill-opacity="1" stroke="none"/>
 </g>
 <g id="n-copier">
  <path id="path-6" d="M210 0 L210 80 220 80 220 90 250 90 250 80 260 80 260 90 300 90 300 10 290 10 290 0 260 0 260 10 250 10 250 0 210 0 Z" fill="#000000" fill-opacity="1" stroke="none"/>
  <path id="path-7" d="M220 70 L220 10 240 10 240 20 250 20 250 30 260 30 260 40 270 40 270 20 270 10 280 10 280 70 260 70 260 60 250 60 250 50 240 50 240 40 230 40 230 70 220 70 Z" fill="#00a2ff" fill-opacity="1" stroke="none"/>
 </g>
 <g id="x-copier">
  <path id="path-8" d="M281 0 L361.997 0.003 C361.997 0.003 361.998 10.002 361.998 10.002 361.998 10.002 371.998 10.002 371.998 10.002 L371.998 90 291.999 90 291.999 80.001 C291.999 80.001 281 80 281 80 281 80 281 0 281 0 Z" fill="#000000" fill-opacity="1" stroke="none"/>
  <path id="path-9" d="M292 70 L292 50 302 50 302 40 292 40 292 10 312 10 312 40 C312 40 332 40 332 40 332 40 332 10 332 10 L352 10 352 40 342 40 342 50 352 50 352 70 332 70 332 50 312 50 312 70 292 70 Z" fill="#00a2ff" fill-opacity="1" stroke="none"/>
 </g>
 <g id="new-group-copier">
  <path id="path-10" d="M410 0 L410 80 420 80 420 90 460 90 460 60 470 60 470 10 460 10 460 0 Z" fill="#000000" fill-opacity="1" stroke="none"/>
  <path id="path-11" d="M420 10 L420 50 440 50 440 40 450 40 450 10 420 10 Z" fill="#00a2ff" fill-opacity="1" stroke="none"/>
  <path id="path-12" d="M420 60 L440 60 440 70 420 70 420 60 Z" fill="#00a2ff" fill-opacity="1" stroke="none"/>
 </g>
</svg>
