<?xml version="1.0" encoding="UTF-8"?>
<svg width="1130px" height="90px" viewBox="0 0 1130 90" xmlns="http://www.w3.org/2000/svg" xmlns:xlink="http://www.w3.org/1999/xlink" version="1.1">
 <!-- Generated by Pixelmator Pro 1.4.1 -->
 <g id="l-copier">
  <path id="path" d="M620 0 L660 0 660 40 700 40 700 50 710 50 710 90 630 90 630 80 620 80 620 0 Z" fill="#000000" fill-opacity="1" stroke="none"/>
  <path id="path-1" d="M690 70 C690 70 630 70 630 70 L630 10 650 10 650 60 670 60 670 50 690 50 Z" fill="#00a2ff" fill-opacity="1" stroke="none"/>
 </g>
 <g id="e-copier">
  <path id="path-2" d="M689 0 L769 0 768.999 10 779.999 10 779.999 40 768.999 40 768.998 60 779.998 60 779.998 90 698.998 90 698.997 80 C698.997 80 688.999 80 688.999 80 688.999 80 689 0 689 0 Z" fill="#000000" fill-opacity="1" stroke="none"/>
  <path id="path-3" d="M699 10 L759 10 759 20 719 20 719 30 749 30 749 50 719 50 719 60 759 60 759 70 699 70 Z" fill="#00a2ff" fill-opacity="1" stroke="none"/>
 </g>
 <g id="r-copier">
  <path id="path-4" d="M760 0 L830 0 830 10 840 10 840 20 850 20 850 90 770 90 770 80 760 80 760 0 Z" fill="#000000" fill-opacity="1" stroke="none"/>
  <path id="path-5" d="M770 70 L770 10 820 10 820 20 830 20 830 40 820 40 820 50 830 50 830 70 810 70 810 50 790 50 790 70 770 70 Z M790 40 L810 40 810 20 790 20 790 40 Z" fill="#00a2ff" fill-opacity="1" stroke="none"/>
 </g>
 <g id="n-copier">
  <path id="path-6" d="M830 0 L830 80 840 80 840 90 870 90 870 80 880 80 880 90 920 90 920 10 910 10 910 0 880 0 880 10 870 10 870 0 830 0 Z" fill="#000000" fill-opacity="1" stroke="none"/>
  <path id="path-7" d="M840 70 L840 10 860 10 860 20 870 20 870 30 880 30 880 40 890 40 890 20 890 10 900 10 900 70 880 70 880 60 870 60 870 50 860 50 860 40 850 40 850 70 840 70 Z" fill="#00a2ff" fill-opacity="1" stroke="none"/>
 </g>
 <g id="a-copier">
  <path id="path-8" d="M900 10 L910 10 910 0 970 0 970 10 980 10 980 20 990 20 990 90 910 90 910 80 900 80 900 10 Z" fill="#000000" fill-opacity="1" stroke="none"/>
  <path id="path-9" d="M910 70 L910 20 920 20 920 10 960 10 960 20 970 20 970 70 950 70 950 50 930 50 930 70 910 70 Z M930 40 L950 40 950 20 930 20 930 40 Z" fill="#00a2ff" fill-opacity="1" stroke="none"/>
 </g>
 <g id="?-copier">
  <path id="path-10" d="M1040 40 L1040 10 1050 10 1050 0 1110 0 1110 10 1120 10 1120 20 1130 20 1130 60 1120 60 1120 70 1110 70 1110 90 1070 90 1070 80 1060 80 1060 40 1040 40 Z" fill="#000000" fill-opacity="1" stroke="none"/>
  <path id="path-11" d="M1050 20 L1060 20 1060 10 1100 10 1100 20 1110 20 1110 40 1100 40 1100 50 1070 50 1070 40 1090 40 1090 20 1070 20 1070 30 1050 30 1050 20 Z" fill="#00a2ff" fill-opacity="1" stroke="none"/>
  <path id="path-12" d="M1070 60 L1090 60 1090 70 1070 70 1070 60 Z" fill="#00a2ff" fill-opacity="1" stroke="none"/>
 </g>
 <g id="w-copier">
  <path id="path-13" d="M80 0 C80 0 80 10 80 10 L90 10 90 80 80 80 79.689 90 10 90 10 80 0 80 0 0 30.852 0 30 10 50 10 50 0 80 0 Z" fill="#000000" fill-opacity="1" stroke="none"/>
  <path id="path-14" d="M70 20.016 C70 20.016 70 60.017 70 60.017 70 60.017 60 60.017 60 60.017 60 60.017 60 70 60 70 60 70 50 70 50 70 50 70 50 60.001 50 60.001 50 60.001 30 60.003 30 60.003 30 60.003 30 70 30 70 30 70 20 70 20 70 L20 60.013 10 60.012 10 10.008 20 10.008 20 60.007 30 60.002 30 20 50 20 50 60.001 60 60.007 60 10.007 C60 10.007 70 10.016 70 10.016 L70 20.016 Z" fill="#00a2ff" fill-opacity="1" stroke="none"/>
 </g>
 <g id="k-copier">
  <path id="path-15" d="M70 0 L150 0 C150 0 150 10 150 10 L160 10 160 90 80 90 80 80 70 80 Z" fill="#000000" fill-opacity="1" stroke="none"/>
  <path id="path-16" d="M140 70.002 C140 70.002 120 70.002 120 70.002 120 70.002 120 50.001 120 50.001 120 50.001 100 50.002 100 50.002 100 50.002 100 70.002 100 70.002 100 70.002 80 70.002 80 70.002 L80 10.002 100 10.002 100 40.002 120 40.002 120 10.002 140 10.002 140 70.002 Z" fill="#00a2ff" fill-opacity="1" stroke="none"/>
 </g>
 <g id="o-copier">
  <path id="path-17" d="M140 10 L150 10 150 0 210 0 210 10 220 10 C220 10 220 20 220 20 220 20 230 20 230 20 L230 80 220 80 220 90 160 90 160 80 150 80 150 70 140 70 140 10 Z" fill="#000000" fill-opacity="1" stroke="none"/>
  <path id="path-18" d="M160 70 L160 60 150 60 150 20 160 20 160 10 200 10 200 20 210 20 210 60 200 60 200 70 160 70 Z M170 60 L190 60 190 20 170 20 170 60 Z" fill="#00a2ff" fill-opacity="1" stroke="none"/>
 </g>
 <g id="u-copier">
  <path id="path-19" d="M360 0 C360 0 360 10 360 10 L370 10 370 80 360 80 360 90 290 90 290 80 280 80 280 0 Z" fill="#000000" fill-opacity="1" stroke="none"/>
  <path id="path-20" d="M350 60.001 C350 60.001 340 60.002 340 60.002 340 60.002 340 70 340 70 340 70 300 70 300 70 L300 60.003 290 60.003 290 10.003 310 10.002 310 60.002 330 60 330 10 C330 10 350 10.001 350 10.001 Z" fill="#00a2ff" fill-opacity="1" stroke="none"/>
 </g>
 <g id="s-copier">
  <path id="path-21" d="M350 10 L360 10 360 0 420 0 420 10 430 10 430 40 440 40 440 80 430 80 430 90 370 90 370 80 360 80 360 50 350 50 Z" fill="#000000" fill-opacity="1" stroke="none"/>
  <path id="path-22" d="M360 20 L370 20 370 10 410 10 410 20 380 20 380 30 410 30 410 40 420 40 420 60 410 60 410 70 370 70 370 60 400 60 400 50 370 50 370 40 360 40 360 20 Z" fill="#00a2ff" fill-opacity="1" stroke="none"/>
 </g>
 <g id="e-copier-1">
  <path id="path-23" d="M419 0 L499 0 498.999 10 509.999 10 509.999 40 498.999 40 498.998 60 509.998 60 509.998 90 428.998 90 428.997 80 C428.997 80 418.999 80 418.999 80 418.999 80 419 0 419 0 Z" fill="#000000" fill-opacity="1" stroke="none"/>
  <path id="path-24" d="M429 10 L489 10 489 20 449 20 449 30 479 30 479 50 449 50 449 60 489 60 489 70 429 70 Z" fill="#00a2ff" fill-opacity="1" stroke="none"/>
 </g>
 <g id="s-copier-1">
  <path id="path-25" d="M480 10 L490 10 490 0 550 0 550 10 560 10 560 40 570 40 570 80 560 80 560 90 500 90 500 80 490 80 490 50 480 50 Z" fill="#000000" fill-opacity="1" stroke="none"/>
  <path id="path-26" d="M490 20 L500 20 500 10 540 10 540 20 510 20 510 30 540 30 540 40 550 40 550 60 540 60 540 70 500 70 500 60 530 60 530 50 500 50 500 40 490 40 490 20 Z" fill="#00a2ff" fill-opacity="1" stroke="none"/>
 </g>
</svg>
