<?xml version="1.0" encoding="UTF-8"?>
<svg width="150px" height="90px" viewBox="0 0 150 90" xmlns="http://www.w3.org/2000/svg" xmlns:xlink="http://www.w3.org/1999/xlink" version="1.1">
 <!-- Generated by Pixelmator Pro 1.4.1 -->
 <path id="path" d="M0 10 L10 10 10 0 50 0 50 10 60 10 60 40 40 40 40 50 50 50 50 60 60 60 60 90 20 90 20 80 10 80 10 70 0 70 0 10 Z" fill="#000000" fill-opacity="1" stroke="none"/>
 <path id="path-1" d="M0 10 L10 10 10 0 50 0 50 30 40 30 40 50 50 50 50 80 10 80 10 70 0 70 Z" fill="#000000" fill-opacity="1" stroke="none"/>
 <path id="path-2" d="M10 20 L20 20 29 10 40 10 40 20 30 20 C30 20 30 60 30 60 30 60 40 60 40 60 L40 70 20 70 20 60 C20 60 10 60 10 60 10 60 10 20 10 20 Z" fill="#00a2ff" fill-opacity="1" stroke="none"/>
</svg>
