<?xml version="1.0" encoding="UTF-8"?>
<svg width="150px" height="90px" viewBox="0 0 150 90" xmlns="http://www.w3.org/2000/svg" xmlns:xlink="http://www.w3.org/1999/xlink" version="1.1">
 <!-- Generated by Pixelmator Pro 1.4.1 -->
 <path id="path" d="M0 0 L40 0 40 10 50 10 50 20 60 20 60 80 50 80 50 90 10 90 10 80 0 80 0 50 10 50 10 30 0 30 0 0 Z" fill="#000000" fill-opacity="1" stroke="none"/>
 <path id="path-1" d="M0 0 L40 0 40 10 50 10 50 70 40 70 40 80 0 80 0 50 10 50 10 30 0 30 Z" fill="#000000" fill-opacity="1" stroke="none"/>
 <path id="path-2" d="M10 10 L30 10 30 20 40 20 40 60 30 60 30 70 10 70 10 60 20 60 20 20 10 20 10 10 Z" fill="#00a2ff" fill-opacity="1" stroke="none"/>
</svg>
