<?xml version="1.0" encoding="UTF-8"?>
<svg width="150px" height="90px" viewBox="0 0 150 90" xmlns="http://www.w3.org/2000/svg" xmlns:xlink="http://www.w3.org/1999/xlink" version="1.1">
 <!-- Generated by Pixelmator Pro 1.4.1 -->
 <path id="path" d="M0 10 L10 10 10 0 70 0 70 10 80 10 C80 10 80 70 80 70 L70 70 70 80 20 80 10 80 10 70 0 70 Z" fill="#000000" fill-opacity="1" stroke="none"/>
 <path id="path-1" d="M10 20 L20 20 20 10 60 10 60 20 70 20 70 30 60 30 60 40 70 40 70 60 60 60 60 70 C60 70 20 70 20 70 20 70 20 60 20 60 L10 60 10 50 30 50 30 60 50 60 50 40 30 40 30 30 50 30 50 20 20.753 20 20 20 20 30 C20 30 10 30 10 30 10 30 10 20 10 20 Z" fill="#00a2ff" fill-opacity="1" stroke="none"/>
</svg>
