<?xml version="1.0" encoding="UTF-8"?>
<svg width="150px" height="90px" viewBox="0 0 150 90" xmlns="http://www.w3.org/2000/svg" xmlns:xlink="http://www.w3.org/1999/xlink" version="1.1">
 <!-- Generated by Pixelmator Pro 1.4.1 -->
 <path id="path" d="M0 0 L80 0 80 40 70 40 70 50 60 50 60 80 20 80 20 40 C20 40 10 40 10 40 10 40 10 30 10 30 10 30 0 30 0 30 0 30 0 0 0 0 Z" fill="#000000" fill-opacity="1" stroke="none"/>
 <path id="path-1" d="M10 10 L70 10 70 30 60 30 60 40 50 40 50 50 50 70 30 70 30 40 C30 40 40 40 40 40 40 40 40 30 40 30 40 30 50 30 50 30 50 30 50 20 50 20 L10 20 10 10 Z" fill="#00a2ff" fill-opacity="1" stroke="none"/>
</svg>
