<?xml version="1.0" encoding="UTF-8"?>
<svg width="150px" height="90px" viewBox="0 0 150 90" xmlns="http://www.w3.org/2000/svg" xmlns:xlink="http://www.w3.org/1999/xlink" version="1.1">
 <!-- Generated by Pixelmator Pro 1.4.1 -->
 <path id="path" d="M0 10 L10 10 10 0 70 0 70 10 80 10 80 70 70 70 70 80 C70 80 10 80 10 80 10 80 10 50 10 50 L0 50 Z" fill="#000000" fill-opacity="1" stroke="none"/>
 <path id="path-1" d="M20 70 L20 60 50 60 50 50 20 50 20 40 10 40 10 20 20 20 20 10 60 10 60 20 70 20 70 60 60 60 60 70 20 70 Z M30 40 L50 40 50 20 30 20 30 40 Z" fill="#00a2ff" fill-opacity="1" stroke="none"/>
</svg>
