<?xml version="1.0" encoding="UTF-8"?>
<svg width="90px" height="90px" viewBox="0 0 90 90" xmlns="http://www.w3.org/2000/svg" xmlns:xlink="http://www.w3.org/1999/xlink" version="1.1">
 <!-- Generated by Pixelmator Pro 1.4.1 -->
 <path id="path" d="M0 40 L0 10 10 10 10 0 70 0 70 10 80 10 80 20 90 20 90 60 80 60 80 70 70 70 70 90 30 90 30 80 20 80 20 40 0 40 Z" fill="#000000" fill-opacity="1" stroke="none"/>
 <path id="path-1" d="M0 40 L0 10 10 10 10 0 70 0 70 10 80 10 80 50 70 50 70 60 60 60 60 80 20 80 20 40 Z" fill="#000000" fill-opacity="1" stroke="none"/>
 <g id="?-copier">
  <path id="path-2" d="M10 20 L20 20 20 10 60 10 60 20 70 20 70 40 60 40 60 50 30 50 30 40 50 40 50 20 30 20 30 30 10 30 10 20 Z" fill="#00a2ff" fill-opacity="1" stroke="none"/>
  <path id="path-3" d="M30 60 L50 60 50 70 30 70 30 60 Z" fill="#00a2ff" fill-opacity="1" stroke="none"/>
 </g>
</svg>
