<?xml version="1.0" encoding="UTF-8"?>
<svg width="90px" height="90px" viewBox="0 0 90 90" xmlns="http://www.w3.org/2000/svg" xmlns:xlink="http://www.w3.org/1999/xlink" version="1.1">
 <!-- Generated by Pixelmator Pro 1.4.1 -->
 <path id="path" d="M10 50 C10 50 10 40 10 40 L50 40 50 50 60 50 60 80 50 80 50 90 10 90 10 80 0 80 0 50 C0 50 10 50 10 50 Z" fill="#000000" fill-opacity="1" stroke="none"/>
 <path id="path-1" d="M10 50 C10 50 10 40 10 40 L50 40 50 70 40 70 40 80 0 80 0 50 C0 50 10 50 10 50 Z" fill="#000000" fill-opacity="1" stroke="none"/>
 <g id="--copier">
  <path id="path-2" d="M10 70 L30 70 30 59.999 40 60 40 50 20 50 20 60 10 60 10 70 Z" fill="#00a2ff" fill-opacity="1" stroke="none"/>
 </g>
</svg>
