<?xml version="1.0" encoding="UTF-8"?>
<svg width="90px" height="90px" viewBox="0 0 90 90" xmlns="http://www.w3.org/2000/svg" xmlns:xlink="http://www.w3.org/1999/xlink" version="1.1">
 <!-- Generated by Pixelmator Pro 1.4.1 -->
 <path id="path" d="M0 80 L0 0 70 0 70 10 80 10 80 20 90 20 90 80 80 80 80 90 10 90 10 80 0 80 Z" fill="#000000" fill-opacity="1" stroke="none"/>
 <path id="path-1" d="M0 80 L0 0 70 0 70 10 80 10 80 70 70 70 70 80 Z" fill="#000000" fill-opacity="1" stroke="none"/>
 <g id="char">
  <path id="path-2" d="M10 70 L10 10 60 10 60 20 70 20 70 60 60 60 60 70 10 70 Z M30 60 L50 60 50 20 30 20 30 60 Z" fill="#00a2ff" fill-opacity="1" stroke="none"/>
 </g>
</svg>
