<?xml version="1.0" encoding="UTF-8"?>
<svg width="90px" height="90px" viewBox="0 0 90 90" xmlns="http://www.w3.org/2000/svg" xmlns:xlink="http://www.w3.org/1999/xlink" version="1.1">
 <!-- Generated by Pixelmator Pro 1.4.1 -->
 <path id="path" d="M50 0 L80 0 80 10 90 10 90 50 80 50 80 60 70 60 70 70 30 70 30 60 20 60 20 50 10 50 10 40 0 40 0 0 30 0 30 10 50 10 Z" fill="#000000" fill-opacity="1" stroke="none"/>
 <path id="path-1" d="M50 0 L80 0 80 40 70 40 70 50 59.999 50 59.999 60 29.997 60 19.997 60 20 50 9.997 50 9.997 40 0 40 0 0 30 0 30 10 50 10 Z" fill="#000000" fill-opacity="1" stroke="none"/>
 <path id="path-2" d="M70 10 L70 30 60 30 60 40 50 40 50 50 30 50 30 40 20 40 20 30 10 30 10 10 20 10 20 20 30 20 30 30 50 30 50 20 60 20 60 10 70 10 Z" fill="#00a2ff" fill-opacity="1" stroke="none"/>
</svg>
