<?xml version="1.0" encoding="UTF-8"?>
<svg width="90px" height="90px" viewBox="0 0 90 90" xmlns="http://www.w3.org/2000/svg" xmlns:xlink="http://www.w3.org/1999/xlink" version="1.1">
 <!-- Generated by Pixelmator Pro 1.4.1 -->
 <path id="path" d="M-1 0 L79.999 0 79.999 10 89.999 10 89.997 40 79.998 40 79.998 60 89.996 60 89.996 90 10 90 9.999 80 C9.999 80 -1 80 -1 80 -1 80 -1 0 -1 0 Z" fill="#000000" fill-opacity="1" stroke="none"/>
 <path id="path-1" d="M-1 0 L80 0 79.998 30 68.998 30 68.998 50 79.999 50 79.999 80 C79.999 80 -1 80 -1 80 -1 80 -1 0 -1 0 Z" fill="#000000" fill-opacity="1" stroke="none"/>
 <g id="e-copier">
  <path id="path-2" d="M10 10 L70 10 70 20 30 20 30 30 60 30 60 50 30 50 30 60 70 60 70 70 10 70 Z" fill="#00a2ff" fill-opacity="1" stroke="none"/>
 </g>
</svg>
