<?xml version="1.0" encoding="UTF-8"?>
<svg width="90px" height="90px" viewBox="0 0 90 90" xmlns="http://www.w3.org/2000/svg" xmlns:xlink="http://www.w3.org/1999/xlink" version="1.1">
 <!-- Generated by Pixelmator Pro 1.4.1 -->
 <path id="path" d="M-0 0 L79.541 0 80 10 89.999 10 89.996 40 79.997 40 79.997 70 49.994 70 49.997 90 9.998 90 9.998 80 C9.998 80 -0 80 -0 80 -0 80 -0 0 -0 0 Z" fill="#000000" fill-opacity="1" stroke="none"/>
 <path id="path-1" d="M-0 0 L79.538 0 79.998 30 69.998 30 69.999 60 39.999 60 40 80 C40 80 -0 80 -0 80 -0 80 -0 0 -0 0 Z" fill="#000000" fill-opacity="1" stroke="none"/>
 <g id="f-copier">
  <path id="path-2" d="M10 10 L70 10 70 20 30 20 30 30 60 30 60 50 30 50 30 70 C30 70 10 70 10 70 Z" fill="#00a2ff" fill-opacity="1" stroke="none"/>
 </g>
</svg>
