<?xml version="1.0" encoding="UTF-8"?>
<svg width="90px" height="90px" viewBox="0 0 90 90" xmlns="http://www.w3.org/2000/svg" xmlns:xlink="http://www.w3.org/1999/xlink" version="1.1">
 <!-- Generated by Pixelmator Pro 1.4.1 -->
 <path id="path" d="M0 10 L10 10 10 0 70 0 70 10 80 10 C80 10 80 20 80 20 80 20 90 20 90 20 L90 80 80 80 80 90 20 90 20 80 10 80 10 70 0 70 0 10 Z" fill="#000000" fill-opacity="1" stroke="none"/>
 <path id="path-1" d="M0 10 L10 10 10 0 70 0 70 10 80 10 C80 10 80 80 80 80 L10 80 10 70 0 70 Z" fill="#000000" fill-opacity="1" stroke="none"/>
 <g id="g-copier">
  <path id="path-2" d="M10 60.001 L10 20.001 20 20.001 20 10 C20 10 60 10.008 60 10.008 60 10.008 60 20.008 60 20.008 L70 20.008 70 30.008 50 30.008 50 20.008 30 20.008 30 60.008 50 60.008 50 50.003 40 50.003 40 40.004 70 40.004 70 70 60 70 60 70 60 60.003 50 60.003 50 70 20 70 20 60.001 10 60.001 Z" fill="#00a2ff" fill-opacity="1" stroke="none"/>
 </g>
</svg>
