<?xml version="1.0" encoding="UTF-8"?>
<svg width="90px" height="90px" viewBox="0 0 90 90" xmlns="http://www.w3.org/2000/svg" xmlns:xlink="http://www.w3.org/1999/xlink" version="1.1">
 <!-- Generated by Pixelmator Pro 1.4.1 -->
 <path id="path" d="M0 0 L80 0 C80 0 80 10 80 10 L90 10 90 90 10 90 10 80 0 80 Z" fill="#000000" fill-opacity="1" stroke="none"/>
 <path id="path-1" d="M0 0 L80 0 C80 0 80 80 80 80 L0 80 Z" fill="#000000" fill-opacity="1" stroke="none"/>
 <g id="k-copier">
  <path id="path-2" d="M70 70.002 C70 70.002 50 70.002 50 70.002 50 70.002 50 50.001 50 50.001 50 50.001 30 50.002 30 50.002 30 50.002 30 70.002 30 70.002 30 70.002 10 70.002 10 70.002 L10 10.002 30 10.002 30 40.002 50 40.002 50 10.002 70 10.002 70 70.002 Z" fill="#00a2ff" fill-opacity="1" stroke="none"/>
 </g>
</svg>
