<?xml version="1.0" encoding="UTF-8"?>
<svg width="100px" height="90px" viewBox="0 0 100 90" xmlns="http://www.w3.org/2000/svg" xmlns:xlink="http://www.w3.org/1999/xlink" version="1.1">
 <!-- Generated by Pixelmator Pro 1.4.1 -->
 <path id="path" d="M80 0 L80 10 90 10 90 20 100 20 100 60 90 60 90 70 80 70 80 80 70 80 70 90 40 90 40 80 30 80 30 70 20 70 20 60 10 60 10 50 0 50 0 10 10 10 10 0 Z" fill="#000000" fill-opacity="1" stroke="none"/>
 <path id="path-1" d="M80 0 L80 10 90 10 90 50 80 50 80 60 70 60 70 70 60 70 60 80 40 80 30 80 30 70 20 70 20 60 10 60 10 50 0 50 0 10 10 10 10 0 Z" fill="#000000" fill-opacity="1" stroke="none"/>
 <path id="path-2" d="M20 20 L20 10 40 10 40 20 50 20 50 10 70 10 70 20 80 20 80 40 70 40 70 50 60 50 60 60 50 60 50 70 40 70 40 60 30 60 30 50 20 50 20 40 10 40 10 20 Z" fill="#ff5a62" fill-opacity="1" stroke="none"/>
</svg>
