<?xml version="1.0" encoding="UTF-8"?>
<svg width="90px" height="90px" viewBox="0 0 90 90" xmlns="http://www.w3.org/2000/svg" xmlns:xlink="http://www.w3.org/1999/xlink" version="1.1">
 <!-- Generated by Pixelmator Pro 1.4.1 -->
 <path id="path" d="M0 0 L80 0 C80 0 80 10 80 10 L90 10 90 40 60 40 60 50 80 50 80 60 90 60 90 90 10 90 10 80 0 80 0 50 20 50 20 30 0 30 0 0 Z" fill="#000000" fill-opacity="1" stroke="none"/>
 <path id="path-1" d="M0 0 L80 0 C80 0 80 30 80 30 L60 30 60 50 80 50 80 80 0 80 0 50 20 50 20 30 0 30 Z" fill="#000000" fill-opacity="1" stroke="none"/>
 <g id="i-copier">
  <path id="path-2" d="M50 20.004 C50 20.004 50 60.006 50 60.006 50 60.006 70 60.005 70 60.005 70 60.005 70 70 70 70 70 70 10 70 10 70 L10 60.001 30 60.002 30 20.002 10 20.002 10 10.001 70 10.001 70 20.004 Z" fill="#00a2ff" fill-opacity="1" stroke="none"/>
 </g>
</svg>
