<?xml version="1.0" encoding="UTF-8"?>
<svg width="90px" height="90px" viewBox="0 0 90 90" xmlns="http://www.w3.org/2000/svg" xmlns:xlink="http://www.w3.org/1999/xlink" version="1.1">
 <!-- Generated by Pixelmator Pro 1.4.1 -->
 <path id="path" d="M50 50 L50 40 70 40 70 10 60 10 60 0 20 0 20 10 10 10 10 20 0 20 0 60 10 60 10 70 20 70 20 80 30 80 30 90 70 90 70 60 60 60 60 50 50 50 Z" fill="#000000" fill-opacity="1" stroke="none"/>
 <path id="path-1" d="M50 50 L50 30 60 30 60 0 20 0 20 10 10 10 10 20 0 20 0 60 10 60 10 70 20 70 20 80 30 80 60 80 60 50 Z" fill="#000000" fill-opacity="1" stroke="none"/>
 <path id="path-2" d="M50 10 L30 10 30 20 20 20 20 30 10 30 10 50 20 50 20 60 30 60 30 70 50 70 50 60 40 60 40 50 30 50 30 30 40 30 40 20 50 20 50 10 Z" fill="#00a2ff" fill-opacity="1" stroke="none"/>
</svg>
