<?xml version="1.0" encoding="UTF-8"?>
<svg width="90px" height="90px" viewBox="0 0 90 90" xmlns="http://www.w3.org/2000/svg" xmlns:xlink="http://www.w3.org/1999/xlink" version="1.1">
 <!-- Generated by Pixelmator Pro 1.4.1 -->
 <path id="path" d="M0 0 L0 80 10 80 10 90 40 90 40 80 50 80 50 90 90 90 90 10 80 10 80 0 50 0 50 10 40 10 40 0 0 0 Z" fill="#000000" fill-opacity="1" stroke="none"/>
 <path id="path-1" d="M0 0 L0 80 30 80 30 70 40 70 40 80 80 80 80 0 50 0 50 10 40 10 40 0 Z" fill="#000000" fill-opacity="1" stroke="none"/>
 <g id="n-copier">
  <path id="path-2" d="M10 70 L10 10 30 10 30 20 40 20 40 30 50 30 50 40 60 40 60 20 60 10 70 10 70 70 50 70 50 60 40 60 40 50 30 50 30 40 20 40 20 70 10 70 Z" fill="#00a2ff" fill-opacity="1" stroke="none"/>
 </g>
</svg>
