<?xml version="1.0" encoding="UTF-8"?>
<svg width="90px" height="90px" viewBox="0 0 90 90" xmlns="http://www.w3.org/2000/svg" xmlns:xlink="http://www.w3.org/1999/xlink" version="1.1">
 <!-- Generated by Pixelmator Pro 1.4.1 -->
 <path id="path" d="M0 0.003 L70 0.003 70 10.003 80 10.003 80 20.003 90 20.003 90 60.002 80 60.002 80 70.002 50 70.003 50 90 C50 90 10 90 10 90 10 90 10 80.001 10 80.001 L0 80 Z" fill="#000000" fill-opacity="1" stroke="none"/>
 <path id="path-1" d="M0 0.006 L70 0.006 70 10.006 80 10.006 80 50.002 70 50.001 70 60.001 40 60.001 C40 60.001 40 80.001 40 80.001 40 80.001 0 80.003 0 80.003 Z" fill="#000000" fill-opacity="1" stroke="none"/>
 <g id="p-copier">
  <path id="path-2" d="M10 70 L10 10 60 10 60 20 70 20 70 40 60 40 60 50 30 50 30 70 10 70 Z M30 40 L50 40 50 20 30 20 30 40 Z" fill="#00a2ff" fill-opacity="1" stroke="none"/>
 </g>
</svg>
