<?xml version="1.0" encoding="UTF-8"?>
<svg width="90px" height="90px" viewBox="0 0 90 90" xmlns="http://www.w3.org/2000/svg" xmlns:xlink="http://www.w3.org/1999/xlink" version="1.1">
 <!-- Generated by Pixelmator Pro 1.4.1 -->
 <path id="path" d="M0 10 L10 10 10 0 70 0 70 10 80 10 C80 10 80 20 80 20 80 20 90 20 90 20 L90 80 80 80 80 90 20 90 20 80 10 80 10 70 0 70 0 10 Z" fill="#000000" fill-opacity="1" stroke="none"/>
 <path id="path-1" d="M0 10.002 L10 10.002 10 0.002 70 0.002 70 10.002 80 10.002 C80 10.002 80 80.001 80 80.001 L10 80.002 10 70.002 0 70.002 Z" fill="#000000" fill-opacity="1" stroke="none"/>
 <g id="q-copier">
  <path id="path-2" d="M10 60.009 L10 20.009 20 20.009 20 10.009 C20 10.009 60 10.009 60 10.009 60 10.009 60 20.009 60 20.009 L70 20.009 70 50 60 50 60 40.001 50 40.001 50 20.009 30 20.009 30 60.009 50 60.009 50 50.007 40 50.007 40 40.008 50 40.004 50 50.004 60 50.005 60 60.005 70 60.006 70 70 60 70 60 60.003 50 60.006 50 70 20 70 20 60.009 10 60.009 Z" fill="#00a2ff" fill-opacity="1" stroke="none"/>
 </g>
</svg>
