<?xml version="1.0" encoding="UTF-8"?>
<svg width="90px" height="90px" viewBox="0 0 90 90" xmlns="http://www.w3.org/2000/svg" xmlns:xlink="http://www.w3.org/1999/xlink" version="1.1">
 <!-- Generated by Pixelmator Pro 1.4.1 -->
 <path id="path" d="M10 10 C10 10 10 0 10 0 L50 0 50 10 60 10 60 40 50 40 50 50 10 50 10 40 0 40 0 10 C0 10 10 10 10 10 Z" fill="#000000" fill-opacity="1" stroke="none"/>
 <path id="path-1" d="M10 10 C10 10 10 0 10 0 L50 0 50 30 40 30 40 40 0 40 0 10 C0 10 10 10 10 10 Z" fill="#000000" fill-opacity="1" stroke="none"/>
 <path id="path-2" d="M10 30 L30 30 30 19.999 40 20 40 10 20 10 20 20 10 20 10 30 Z" fill="#00a2ff" fill-opacity="1" stroke="none"/>
</svg>
