<?xml version="1.0" encoding="UTF-8"?>
<svg width="90px" height="90px" viewBox="0 0 90 90" xmlns="http://www.w3.org/2000/svg" xmlns:xlink="http://www.w3.org/1999/xlink" version="1.1">
 <!-- Generated by Pixelmator Pro 1.4.1 -->
 <path id="path" d="M0 10 L10 10 10 0 70 0 70 30 80 30 80 70 70 70 70 80 10 80 10 50 0 50 Z" fill="#000000" fill-opacity="1" stroke="none"/>
 <path id="path-1" d="M0 10 L10 10 10 0 70 0 70 10 80 10 80 40 90 40 90 80 80 80 80 90 20 90 20 80 10 80 10 50 0 50 Z" fill="#000000" fill-opacity="1" stroke="none"/>
 <g id="s-copier">
  <path id="path-2" d="M10 20 L20 20 20 10 60 10 60 20 30 20 30 30 60 30 60 40 70 40 70 60 60 60 60 70 20 70 20 60 50 60 50 50 20 50 20 40 10 40 10 20 Z" fill="#00a2ff" fill-opacity="1" stroke="none"/>
 </g>
</svg>
