<?xml version="1.0" encoding="UTF-8"?>
<svg width="150px" height="90px" viewBox="0 0 150 90" xmlns="http://www.w3.org/2000/svg" xmlns:xlink="http://www.w3.org/1999/xlink" version="1.1">
 <!-- Generated by Pixelmator Pro 1.4.1 -->
 <path id="path" d="M0 10 L10 10 10 0 40 0 40 10 90 10 90 0 120 0 120 10 130 10 130 20 140 20 140 50 130 50 130 60 140 60 140 80 130 80 130 90 C130 90 20 90 20 90 L20 80 10 80 10 70 0 70 Z" fill="#000000" fill-opacity="1" stroke="none"/>
 <path id="path-1" d="M0 10 L10 10 10 0 40 0 40 10 90 10 90 0 120 0 120 10 130 10 130 70 120 70 120 80 C120 80 10 80 10 80 L10 70 0 70 Z" fill="#000000" fill-opacity="1" stroke="none"/>
 <path id="path-2" d="M20 70 L20 60 10 60 10 50 30 50 30 70 20 70 Z M30 50 L30 30 40 30 40 20 90 20 90 30 100 30 100 50 90 50 90 70 80 70 80 60 70 60 70 70 60 70 60 60 50 60 50 70 40 70 40 50 30 50 Z M100 50 L120 50 120 60 110 60 110 70 100 70 100 50 Z M100 30 L100 10 110 10 110 20 120 20 120 30 100 30 Z M30 30 L10 30 10 20 20 20 20 10 30 10 30 30 Z M40 45 L60 45 60 35 40 35 40 45 Z M70 45 L90 45 90 35 70 35 70 45 Z" fill="#fad24d" fill-opacity="1" stroke="none"/>
</svg>
