<?xml version="1.0" encoding="UTF-8"?>
<svg width="90px" height="90px" viewBox="0 0 90 90" xmlns="http://www.w3.org/2000/svg" xmlns:xlink="http://www.w3.org/1999/xlink" version="1.1">
 <!-- Generated by Pixelmator Pro 1.4.1 -->
 <path id="path" d="M10 90 L10 80 0 80 0 50 10 50 10 40 20 40 20 30 30 30 30 20 40 20 40 10 51.406 10 50 0 80 0 80 10 90 10 90 50 80 50 80 60 70 60 70 70 60 70 60 77 50 80 50 90 10 90 Z" fill="#000000" fill-opacity="1" stroke="none"/>
 <path id="path-1" d="M40 80 L0 80 0 50 10 50 10 40 20 40 20 30 30 30 30 20 40 20 40 10 50 10 50 0 80 0 80 40 70 40 70 50 60 50 60 60 50 60 50 70 40 70 Z" fill="#000000" fill-opacity="1" stroke="none"/>
 <g id="/-copier">
  <path id="path-2" d="M70 10 L70 30 60 30 60 40 50 40 50 50 40 50 40 60 30 60 30 70 10 70 10 60 20 60 20 50 30 50 30 40 40 40 40 30 C40 30 50.91 30.301 50 30 49.09 29.699 50 20 50 20 L60 20 60 10 70 10 Z" fill="#00a2ff" fill-opacity="1" stroke="none"/>
 </g>
</svg>
