<?xml version="1.0" encoding="UTF-8"?>
<svg width="90px" height="90px" viewBox="0 0 90 90" xmlns="http://www.w3.org/2000/svg" xmlns:xlink="http://www.w3.org/1999/xlink" version="1.1">
 <!-- Generated by Pixelmator Pro 1.4.1 -->
 <path id="path" d="M80 0 C80 0 80 10 80 10 L90 10 90 80 80 80 80 90 10 90 10 80 0 80 0 0 Z" fill="#000000" fill-opacity="1" stroke="none"/>
 <path id="path-1" d="M80 0 C80 0 80 70 80 70 L70 70 70 80 10 80 10 70 0 70 0 0 Z" fill="#000000" fill-opacity="1" stroke="none"/>
 <g id="u-copier">
  <path id="path-2" d="M70 60.001 C70 60.001 60 60.002 60 60.002 60 60.002 60 70 60 70 60 70 20 70 20 70 L20 60.003 10 60.003 10 10.003 30 10.002 30 60.002 50 60 50 10 C50 10 70 10.001 70 10.001 Z" fill="#00a2ff" fill-opacity="1" stroke="none"/>
 </g>
</svg>
