<?xml version="1.0" encoding="UTF-8"?>
<svg width="100px" height="90px" viewBox="0 0 100 90" xmlns="http://www.w3.org/2000/svg" xmlns:xlink="http://www.w3.org/1999/xlink" version="1.1">
 <!-- Generated by Pixelmator Pro 1.4.1 -->
 <path id="path" d="M0 50 L0 20 10 20 10 10 20 10 20 0 50 0 50 10 60 10 60 20 70 20 70 30 80 30 80 60 10 60 10 50 0 50 Z" fill="#000000" fill-opacity="1" stroke="none"/>
 <path id="path-1" d="M0 50 L0 20 10 20 10 10 20 10 20 0 50 0 50 10 60 10 60 20 70 20 70 30 70 50 Z" fill="#000000" fill-opacity="1" stroke="none"/>
 <path id="path-2" d="M60 30 L50 30 50 20 40 20 40 10 30 10 30 20 20 20 20 30 10 30 10 40 60 40 Z" fill="#00a2ff" fill-opacity="1" stroke="none"/>
</svg>
