<?xml version="1.0" encoding="UTF-8"?>
<svg width="90px" height="90px" viewBox="0 0 90 90" xmlns="http://www.w3.org/2000/svg" xmlns:xlink="http://www.w3.org/1999/xlink" version="1.1">
 <!-- Generated by Pixelmator Pro 1.4.1 -->
 <path id="path" d="M80 0 C80 0 80 10 80 10 L90 10 90 70 80 70 80 80 70 80 70 90 30 90 30 80 20 80 20 70 10 70 10 60 0 60 0 0 Z" fill="#000000" fill-opacity="1" stroke="none"/>
 <path id="path-1" d="M80 0 C80 0 80 60 80 60 L70 60 70 70 60 70 60 80 20 80 20 70 10 70 10 60 0 60 0 0 Z" fill="#000000" fill-opacity="1" stroke="none"/>
 <g id="v-copier">
  <path id="path-2" d="M60 60.004 C60 60.004 50 60.006 50 60.006 50 60.006 50 70 50 70 50 70 30 70 30 70 L30 60.005 20 60.002 20 50.001 10 50.001 10 10.003 30 10.004 30 50.006 50 50.006 50 10.004 70 10.014 70 50 60 50.001 60 60.004 Z" fill="#00a2ff" fill-opacity="1" stroke="none"/>
 </g>
</svg>
