<?xml version="1.0" encoding="UTF-8"?>
<svg width="90px" height="90px" viewBox="0 0 90 90" xmlns="http://www.w3.org/2000/svg" xmlns:xlink="http://www.w3.org/1999/xlink" version="1.1">
 <!-- Generated by Pixelmator Pro 1.4.1 -->
 <path id="path" d="M80 0 C80 0 80 10 80 10 L90 10 90 80 80 80 79.689 90 10 90 10 80 0 80 0 0 30.852 0 30 10 50 10 50 0 80 0 Z" fill="#000000" fill-opacity="1" stroke="none"/>
 <path id="path-1" d="M80 0 C80 0 80 70 80 70 L70 70 70 80 10 80 10 70 0 70 0 0 30.852 0 30 10 50 10 50 0 Z" fill="#000000" fill-opacity="1" stroke="none"/>
 <g id="w-copier">
  <path id="path-2" d="M70 20.016 C70 20.016 70 60.017 70 60.017 70 60.017 60 60.017 60 60.017 60 60.017 60 70 60 70 60 70 50 70 50 70 50 70 50 60.001 50 60.001 50 60.001 30 60.003 30 60.003 30 60.003 30 70 30 70 30 70 20 70 20 70 L20 60.013 10 60.012 10 10.008 20 10.008 20 60.007 30 60.002 30 20 50 20 50 60.001 60 60.007 60 10.007 C60 10.007 70 10.016 70 10.016 L70 20.016 Z" fill="#00a2ff" fill-opacity="1" stroke="none"/>
 </g>
</svg>
