<?xml version="1.0" encoding="UTF-8"?>
<svg width="90px" height="90px" viewBox="0 0 90 90" xmlns="http://www.w3.org/2000/svg" xmlns:xlink="http://www.w3.org/1999/xlink" version="1.1">
 <!-- Generated by Pixelmator Pro 1.4.1 -->
 <path id="path" d="M-1 0 L79.997 0.003 C79.997 0.003 79.998 10.002 79.998 10.002 79.998 10.002 89.998 10.002 89.998 10.002 L89.998 90 9.999 90 9.999 80.001 C9.999 80.001 -1 80 -1 80 -1 80 -1 0 -1 0 Z" fill="#000000" fill-opacity="1" stroke="none"/>
 <path id="path-1" d="M-1 0.002 L79.995 0.005 C79.995 0.005 79.999 80.001 79.999 80.001 79.999 80.001 -1 80.002 -1 80.002 -1 80.002 -1 0.002 -1 0.002 Z" fill="#000000" fill-opacity="1" stroke="none"/>
 <g id="x-copier">
  <path id="path-2" d="M10 70 L10 50 20 50 20 40 10 40 10 10 30 10 30 40 C30 40 50 40 50 40 50 40 50 10 50 10 L70 10 70 40 60 40 60 50 70 50 70 70 50 70 50 50 30 50 30 70 10 70 Z" fill="#00a2ff" fill-opacity="1" stroke="none"/>
 </g>
</svg>
