<?xml version="1.0" encoding="UTF-8"?>
<svg width="90px" height="90px" viewBox="0 0 90 90" xmlns="http://www.w3.org/2000/svg" xmlns:xlink="http://www.w3.org/1999/xlink" version="1.1">
 <!-- Generated by Pixelmator Pro 1.4.1 -->
 <path id="path" d="M0 0 L80 0 80 10 90 10 90 60 80 60 80 70 70 70 70 80 60 80 60 90 30 90 30 80 20 80 20 60 10 60 10 50 0 50 0 0 Z" fill="#000000" fill-opacity="1" stroke="none"/>
 <path id="path-1" d="M0 0 L80 0 80 50 70 50 70 60 60 60 60 80 20 80 20 60 10 60 10 50 0 50 Z" fill="#000000" fill-opacity="1" stroke="none"/>
 <g id="y-copier">
  <path id="path-2" d="M10 10 L10 40 20 40 20 50 30 50 30 70 50 70 50 50 60 50 60 40 70 40 70 10 50 10 50 40 30 40 30 10 10 10 Z" fill="#00a2ff" fill-opacity="1" stroke="none"/>
 </g>
</svg>
